<svg xmlns="http://www.w3.org/2000/svg" xmlns:xlink="http://www.w3.org/1999/xlink" width="647.492" height="661.122" viewBox="0 0 647.492 661.122">
  <defs>
    <clipPath id="clip-path">
      <path id="Path_301" data-name="Path 301" d="M184.141,188.585c0,5.82-3.025,10.545-6.762,10.545s-6.76-4.724-6.76-10.545,3.027-10.546,6.76-10.546S184.141,182.76,184.141,188.585Z" transform="translate(-170.619 -178.039)" fill="none"/>
    </clipPath>
    <clipPath id="clip-path-2">
      <path id="Path_306" data-name="Path 306" d="M202.293,188.585c0,5.82-3.025,10.545-6.762,10.545s-6.762-4.724-6.762-10.545,3.027-10.546,6.762-10.546S202.293,182.76,202.293,188.585Z" transform="translate(-188.77 -178.039)" fill="none"/>
    </clipPath>
  </defs>
  <g id="Group_9318" data-name="Group 9318" transform="translate(-140 -1215)">
    <g id="Group_9291" data-name="Group 9291" transform="translate(250.183 1389.546)">
      <path id="Path_264" data-name="Path 264" d="M609.322,447.088c0,5.7-109.846,10.322-245.343,10.322s-245.337-4.618-245.337-10.322,109.843-10.322,245.337-10.322S609.322,441.389,609.322,447.088Z" transform="translate(-118.642 29.167)" fill="#e1e1e1"/>
      <g id="Group_9281" data-name="Group 9281" transform="translate(10.166)">
        <g id="Group_9243" data-name="Group 9243" transform="translate(252.502 406.124)">
          <g id="Group_9242" data-name="Group 9242">
            <g id="Group_9241" data-name="Group 9241">
              <path id="Path_265" data-name="Path 265" d="M309.381,436.977c1.761-.251,47.171-31.6,36.57-30.578-1.156.117-2.416.271-3.741.46-10.775,1.551-25.789,5.371-25.789,5.371l-9.414-6.671-8.559-6.1-1.454-1.065-9.834,9.854s3.869,5.448,8.285,11.509c1.63,2.234,3.4,4.617,5.052,6.807,1.749,2.333,3.457,4.541,4.879,6.294C307.418,435.378,308.952,437.04,309.381,436.977Z" transform="translate(-287.16 -398.395)" fill="#5e5e5e"/>
            </g>
            <path id="Path_266" data-name="Path 266" d="M300.476,426.2c7.013-3.914,15.864-14.4,15.864-14.4l-9.414-6.671-8.447-5.984c-4.64,3.654-10.124,7.981-11.174,8.9,0,0,3.761,5.342,8.169,11.4C297.1,421.684,298.821,424.008,300.476,426.2Z" transform="translate(-287.079 -397.972)" fill="#d0d7e9"/>
          </g>
          <path id="Path_267" data-name="Path 267" d="M307.343,413.924c.807.094,2.765-.192,3.376-.913a.326.326,0,0,0,.157.38c1.69.821,3.3-1.415,4.756-2.562a23.631,23.631,0,0,0-.421,3.881c.028.477.574.916,1.029.6,2-1.4,3.043-4.233,5.508-4.442a.622.622,0,0,0,.62.787,7.775,7.775,0,0,0,4.463-2.206c.288-.284-.008-.859-.408-.711-.966.341-1.831.917-2.776,1.28a.64.64,0,0,0-.424-.352c-3.488-.8-4.558,1.6-6.567,3.529a18.807,18.807,0,0,0,.38-3.572.692.692,0,0,0-.856-.661c-1.63.609-2.776,1.953-4.121,3.025,2.477-4.124-1.273-11.611-5.593-12.865-2.729-.787-3.189,1.107-2.4,3.365a31.176,31.176,0,0,0,4.657,7.973c-1.56-1.3-2.93-2.877-4.793-3.722a13.255,13.255,0,0,0-4.168-1.211c-1.68-.167-3.968.547-2.5,2.619A14.238,14.238,0,0,0,307.343,413.924Zm3.7-2a68.145,68.145,0,0,1-5.141-7.843,9.224,9.224,0,0,1-1.206-2.843c-.407-2.335,2.165-1.06,3.138-.162C310.544,403.568,313.347,408.4,311.04,411.925Zm-11.651-2.887c-.583-.609-2.553-2.586-.474-2.517a10.488,10.488,0,0,1,6.372,2.394,28.3,28.3,0,0,0,4.492,3.509c-.912,1.306-6.358-.591-6.794-.828A13.824,13.824,0,0,1,299.389,409.038Z" transform="translate(-281.779 -398.09)" fill="#1a2b36"/>
        </g>
        <g id="Group_9264" data-name="Group 9264" transform="translate(0 173.836)">
          <g id="Group_9244" data-name="Group 9244" transform="translate(96.944 191.232)">
            <rect id="Rectangle_4977" data-name="Rectangle 4977" width="10.911" height="21.822" fill="#b5cad9"/>
          </g>
          <path id="Path_268" data-name="Path 268" d="M269.586,367.5c0,6.953-7.354,18.726-14.968,18.726H167.044c-7.611,0-9.684-11.773-9.684-18.726v-.521c0-6.949,2.073-11.927,9.684-11.927h87.574c7.614,0,14.968,4.978,14.968,11.927Z" transform="translate(-107.177 -190.321)" fill="#4d6f80"/>
          <g id="Group_9258" data-name="Group 9258" transform="translate(27.651 213.054)">
            <g id="Group_9245" data-name="Group 9245" transform="translate(9.183 35.836)">
              <path id="Path_269" data-name="Path 269" d="M190.286,410.163c2.821-1.669,6.5-1.04,9.62-.8,3.951.3,7.9.617,11.863.53,7.343-.151,15.024.12,21.822,3.208,5.565,2.534,13.1,7.574,15.189,13.659,1.613,4.7,1.5,12.184-2.114,16.011-.634.672-1.582-.036-1.434-.837.335-1.827-.564-4.434-.722-6.317-.277-3.384.491-6.006-1.846-8.959a30.342,30.342,0,0,0-16.421-10.328c-5.872-1.453-12.01-1.041-17.994-1.411a74.729,74.729,0,0,1-8.917-1.3c-2.971-.553-6.451-.678-9.048-2.313A.67.67,0,0,1,190.286,410.163Z" transform="translate(-125.793 -409.046)" fill="#b5cad9"/>
              <path id="Path_270" data-name="Path 270" d="M208.284,410.163c-2.823-1.669-6.5-1.04-9.619-.8-3.956.3-7.9.617-11.866.53-7.345-.151-15.016.12-21.817,3.208-5.568,2.534-13.1,7.574-15.191,13.659-1.616,4.7-1.5,12.184,2.112,16.011a.865.865,0,0,0,1.437-.837c-.335-1.827.566-4.434.717-6.317.285-3.384-.488-6.006,1.847-8.959a30.345,30.345,0,0,1,16.418-10.328c5.875-1.453,12.011-1.041,18-1.411a75.081,75.081,0,0,0,8.919-1.3c2.966-.553,6.445-.678,9.044-2.313A.669.669,0,0,0,208.284,410.163Z" transform="translate(-148.796 -409.046)" fill="#b5cad9"/>
              <path id="Path_271" data-name="Path 271" d="M168.791,428.91a15.791,15.791,0,0,1,6.045-10.5c3.557-2.7,7.7-3.814,12.06-4.41a56.317,56.317,0,0,0,6.338-1.113c2.142-.549,4.106-1.605,6.3-1.92a1.391,1.391,0,0,1,1.552,2.022c-3.537,6.442-13.458,5.219-19.5,7.173a13.03,13.03,0,0,0-8.6,9.321c-.524,2.19-.079,4.6-.048,6.816.025,1.839.535,3.532-.312,5.2a.784.784,0,0,1-1.334,0C168.77,438.158,168.4,432.925,168.791,428.91Z" transform="translate(-137.698 -407.985)" fill="#b5cad9"/>
              <path id="Path_272" data-name="Path 272" d="M217.955,428.91a15.787,15.787,0,0,0-6.041-10.5c-3.56-2.7-7.7-3.814-12.06-4.41a56.131,56.131,0,0,1-6.338-1.113c-2.143-.549-4.106-1.605-6.306-1.92a1.39,1.39,0,0,0-1.551,2.022c3.535,6.442,13.456,5.219,19.5,7.173a13.028,13.028,0,0,1,8.6,9.321c.522,2.19.079,4.6.048,6.816-.025,1.839-.538,3.532.313,5.2a.782.782,0,0,0,1.331,0C217.978,438.158,218.346,432.925,217.955,428.91Z" transform="translate(-128.309 -407.985)" fill="#b5cad9"/>
            </g>
            <g id="Group_9257" data-name="Group 9257">
              <g id="Group_9250" data-name="Group 9250" transform="translate(0 64.241)">
                <g id="Group_9247" data-name="Group 9247" transform="translate(32.1)">
                  <g id="Group_9246" data-name="Group 9246">
                    <path id="Path_273" data-name="Path 273" d="M186.344,437.709a9.314,9.314,0,0,1-.087,1.306c-.7,5.145-5.512,9.125-11.332,9.125s-10.63-3.979-11.338-9.125a10.368,10.368,0,0,1-.089-1.306c0-5.761,5.116-10.439,11.427-10.439S186.344,431.948,186.344,437.709Z" transform="translate(-163.498 -427.27)" fill="#5e5e5e"/>
                  </g>
                </g>
                <g id="Group_9249" data-name="Group 9249">
                  <g id="Group_9248" data-name="Group 9248">
                    <path id="Path_274" data-name="Path 274" d="M165.751,437.709a9.816,9.816,0,0,1-.086,1.306c-.708,5.145-5.513,9.125-11.339,9.125s-10.622-3.979-11.338-9.125a11.685,11.685,0,0,1-.084-1.306c0-5.761,5.116-10.439,11.422-10.439S165.751,431.948,165.751,437.709Z" transform="translate(-142.904 -427.27)" fill="#5e5e5e"/>
                  </g>
                </g>
              </g>
              <g id="Group_9255" data-name="Group 9255" transform="translate(87.282 64.241)">
                <g id="Group_9252" data-name="Group 9252">
                  <g id="Group_9251" data-name="Group 9251">
                    <path id="Path_275" data-name="Path 275" d="M221.739,437.709a9.811,9.811,0,0,1-.09,1.306c-.7,5.145-5.507,9.125-11.332,9.125s-10.627-3.979-11.333-9.125a9.561,9.561,0,0,1-.083-1.306c0-5.761,5.109-10.439,11.416-10.439S221.739,431.948,221.739,437.709Z" transform="translate(-198.901 -427.27)" fill="#5e5e5e"/>
                  </g>
                </g>
                <g id="Group_9254" data-name="Group 9254" transform="translate(29.582)">
                  <g id="Group_9253" data-name="Group 9253">
                    <path id="Path_276" data-name="Path 276" d="M217.88,437.709a9.093,9.093,0,0,0,.1,1.306c.7,5.145,5.505,9.125,11.329,9.125s10.632-3.979,11.338-9.125a10.982,10.982,0,0,0,.083-1.306c0-5.761-5.114-10.439-11.421-10.439S217.88,431.948,217.88,437.709Z" transform="translate(-217.88 -427.27)" fill="#5e5e5e"/>
                  </g>
                </g>
              </g>
              <g id="Group_9256" data-name="Group 9256" transform="translate(63.058)">
                <rect id="Rectangle_4978" data-name="Rectangle 4978" width="21.822" height="49.878" fill="#4d6f80"/>
              </g>
            </g>
          </g>
          <g id="Group_9260" data-name="Group 9260">
            <path id="Path_277" data-name="Path 277" d="M316.763,402.2c-4.029-3.891-9.838-5.262-17.906-6.232-9.168-1.09-4.877-1.761-23.751-1.984-11.77-.139-39.351-1.527-43.067-15.383-1.242-4.611-.723-10.29-1.021-15.046q-.409-6.5-.719-13.02c-.39-7.979-.764-15.964-1.263-23.937-.906-14.617-1.7-29.235-2.611-43.855-.179-2.882-.519-5.8-.519-8.682,0-8.33-6.98-19.175-18.933-20.634-22.571-2.756-70.715-7.563-75.233,0,0,0,10.873,124.964,13.673,134.866s40.479,18.522,44.842,20.261c2.868,1.139,5.474,1.3,18.285,1.25,7.574,8.557-16.2,15.174,0,16.511,3.736.32,93.964-1.595,96.379-1.448,8.289.5,15.437-5.094,15.961-12.484A12.934,12.934,0,0,0,316.763,402.2Z" transform="translate(-121.49 -249.368)" fill="#64a1a3"/>
            <g id="Group_9259" data-name="Group 9259" transform="translate(0 0.047)">
              <path id="Path_278" data-name="Path 278" d="M171.636,425.321c-15.355-1.272-27.216-6.584-35.342-15.872a39.367,39.367,0,0,1-9.569-20.983c-.041-.447-.065-.9-.069-1.368l-1.492-123.065c-.1-7.566,4.9-14.1,11.168-14.6s11.41,5.22,11.5,12.78q.21,17.007.4,34.006c.229,20.282.257,40.618.75,60.884.115,4.308.136,8.593.081,12.915-.1,6.955-.8,15.989,4.509,20.208,4.333,3.445,8.576,5.788,13.84,6.748a73.4,73.4,0,0,0,13.928,1.188c14.211-.195,24.9.175,31.779,1.094,6.056.8,10.393,2.081,13.333,5.962a15.253,15.253,0,0,1,2.827,10.314c-.6,7.575-4.657,11.257-10.884,10.933a235.415,235.415,0,0,1-37.987-.854C177.4,425.295,174.444,425.551,171.636,425.321Z" transform="translate(-125.164 -249.398)" fill="#7ac7c7"/>
            </g>
          </g>
          <g id="Group_9263" data-name="Group 9263" transform="translate(69.151 193.219)">
            <g id="Group_9262" data-name="Group 9262" transform="translate(9.087)">
              <g id="Group_9261" data-name="Group 9261">
                <path id="Path_279" data-name="Path 279" d="M177.121,395.108a1.815,1.815,0,0,1-1.141-.385,1.509,1.509,0,0,1-.2-2.265l17.3-18.567a1.867,1.867,0,0,1,2.478-.17,1.5,1.5,0,0,1,.19,2.257l-17.3,18.562A1.852,1.852,0,0,1,177.121,395.108Z" transform="translate(-175.359 -373.33)" fill="#4d6f80"/>
              </g>
            </g>
            <path id="Path_280" data-name="Path 280" d="M185.367,390.55a7.919,7.919,0,1,1-7.921-7.918A7.924,7.924,0,0,1,185.367,390.55Z" transform="translate(-169.529 -368.133)" fill="#4d6f80"/>
          </g>
        </g>
        <g id="Group_9265" data-name="Group 9265" transform="translate(107.034 145.555)">
          <path id="Path_281" data-name="Path 281" d="M294.6,301.748c-6-15.7-30.633-14.914-39.764-3.534l-11.3,7.533c8.447,6.8,28.119,3.094,38.642,4.679C289.515,311.527,299.177,313.737,294.6,301.748Z" transform="translate(-166.062 -198.497)" fill="#e6b48f"/>
          <path id="Path_282" data-name="Path 282" d="M193.88,261.072s-5.307,93.663,97.192,78.683l4.215-19.3s-46.722-12.772-55.553-27.958c0,0-6.9-25.315-14.544-41.566C214.638,228.49,201.616,217.439,193.88,261.072Z" transform="translate(-193.833 -231.223)" fill="#dfe3eb"/>
        </g>
        <path id="Path_283" data-name="Path 283" d="M160.545,318.249s-8.071,43.915,17.88,45.961,94.351,15.235,100.322,23.895,86.093,84.829,86.093,84.829l19.746-21.792s-65.608-84.18-90.449-102.274c-33.9-24.7-84.6-33.714-84.6-33.714Z" transform="translate(-106.06 -38.778)" fill="#394a5c"/>
        <g id="Group_9269" data-name="Group 9269" transform="translate(34.702 270.686)">
          <g id="Group_9268" data-name="Group 9268" transform="translate(180.957 154.406)">
            <g id="Group_9267" data-name="Group 9267">
              <g id="Group_9266" data-name="Group 9266">
                <path id="Path_284" data-name="Path 284" d="M281.518,450.5c1.78,0,51.114-24.716,40.476-25.174-1.164-.05-2.433-.073-3.767-.072-10.888.036-26.287,1.724-26.287,1.724l-8.392-7.923-7.622-7.231-1.291-1.256-11.112,8.386s3.071,5.936,6.6,12.554c1.3,2.439,2.721,5.042,4.051,7.444,1.409,2.555,2.792,4.977,3.951,6.911C279.8,448.641,281.085,450.5,281.518,450.5Z" transform="translate(-263.523 -410.564)" fill="#5e5e5e"/>
              </g>
              <path id="Path_285" data-name="Path 285" d="M274.156,438.518c7.493-2.9,17.715-12.041,17.715-12.041l-8.392-7.923-7.527-7.1c-5.108,2.972-11.14,6.492-12.306,7.254,0,0,2.972,5.808,6.5,12.424C271.443,433.571,272.825,436.115,274.156,438.518Z" transform="translate(-263.454 -410.067)" fill="#d0d7e9"/>
            </g>
            <path id="Path_286" data-name="Path 286" d="M282.624,427.462c.79.2,2.77.2,3.476-.436a.316.316,0,0,0,.1.393c1.559,1.054,3.465-.935,5.07-1.872a23.687,23.687,0,0,0-.962,3.786c-.034.474.443.987.932.737,2.182-1.105,3.608-3.761,6.079-3.624a.618.618,0,0,0,.507.862,7.737,7.737,0,0,0,4.721-1.563c.327-.237.117-.848-.3-.756-1,.2-1.941.648-2.927.881a.616.616,0,0,0-.368-.41c-3.345-1.287-4.74.94-7,2.58a18.877,18.877,0,0,0,.876-3.487.7.7,0,0,0-.759-.776c-1.7.374-3.019,1.549-4.5,2.425,3.029-3.742.359-11.678-3.746-13.52-2.592-1.163-3.307.642-2.849,2.993a31.326,31.326,0,0,0,3.5,8.551c-1.367-1.507-2.5-3.262-4.23-4.357a13.216,13.216,0,0,0-3.959-1.783c-1.638-.394-4-.009-2.834,2.246A14.257,14.257,0,0,0,282.624,427.462Zm3.942-1.468a68.4,68.4,0,0,1-4-8.481,9.285,9.285,0,0,1-.8-2.99c-.075-2.368,2.293-.745,3.127.278C287.241,417.65,289.339,422.822,286.566,425.994Zm-11.131-4.487c-.5-.681-2.17-2.91-.123-2.558a10.465,10.465,0,0,1,5.974,3.267,28.6,28.6,0,0,0,3.965,4.1c-1.093,1.166-6.218-1.471-6.621-1.766A13.83,13.83,0,0,1,275.436,421.506Z" transform="translate(-258.15 -409.584)" fill="#1a2b36"/>
          </g>
          <path id="Path_287" data-name="Path 287" d="M151.339,311.5s-14.119,42.361,11.3,48.008,91.3,28.24,96.012,37.652,73.416,96.008,73.416,96.008l22.592-18.821s-53.226-92.515-75.3-113.9c-30.119-29.18-79.065-45.18-79.065-45.18Z" transform="translate(-147.428 -311.503)" fill="#496076"/>
        </g>
        <path id="Path_288" data-name="Path 288" d="M152.763,305.467s50.829,7.53,64.948,4.706l-.94,10.353s-48.949,6.589-66.834-5.65Z" transform="translate(-111.324 -44.189)" fill="#5e5e5e"/>
        <path id="Path_289" data-name="Path 289" d="M157.29,352.3c-3.664-.873-22.989-111.939-12.237-121.424,16-14.12,96.951-15.062,101.659,18.821,4.661,33.565-24.475,107.308-24.475,107.308S196.825,361.711,157.29,352.3Z" transform="translate(-115.851 -91.022)" fill="#f0f5ff"/>
        <g id="Group_9270" data-name="Group 9270" transform="translate(25.586 138.258)">
          <path id="Path_290" data-name="Path 290" d="M276.487,305.372c-6-15.7-30.636-14.912-39.767-3.534l-11.3,7.532c8.448,6.8,28.117,3.094,38.64,4.676C271.4,315.151,281.062,317.36,276.487,305.372Z" transform="translate(-94.736 -189.176)" fill="#e6b48f"/>
          <path id="Path_291" data-name="Path 291" d="M158.148,226.55c20.7.561,21.875,27.94,36.933,47.708,28.18,36.98,46.638,46.109,60.243,49.888a245.375,245.375,0,0,0,34.827,6.589l-2.824,25.414s-66.832,1.885-98.834-25.414C173.685,318.1,162,301.3,153.161,284.1c-7.066-13.746-14.992-32.849-10.035-48.62,1.172-3.711,3.275-6.5,7.078-7.716A23.86,23.86,0,0,1,158.148,226.55Z" transform="translate(-141.579 -226.542)" fill="#f0f5ff"/>
        </g>
        <path id="Path_292" data-name="Path 292" d="M170.765,204.618c-.717,2.821-5.731,32-5.731,32s27.213,21.649,35.089,15.06c0,0,2.151-11.291,1.434-20.707s-1.434-21.65-1.434-21.65Z" transform="translate(-102.889 -100.533)" fill="#de9e85"/>
        <g id="Group_9271" data-name="Group 9271" transform="translate(88.41 265.285)">
          <path id="Path_293" data-name="Path 293" d="M181.885,308.984l2.8,14.936,12.707-1.059.353-14.823Z" transform="translate(-181.885 -308.038)" fill="#fff"/>
          <path id="Path_294" data-name="Path 294" d="M184.813,310.654l.3,9.035,7.818-.918.353-8.471Z" transform="translate(-180.249 -306.773)" fill="#5e5e5e"/>
        </g>
        <path id="Path_295" data-name="Path 295" d="M231.245,161.686c-4.768-3.308.3-11.4-3.693-17.8C217.231,127.306,201.374,150.6,190.3,146c-7.731-3.208-9.43-7.544-18.905-4.625-7.268,2.237-13.866,8.208-15.015,16.093-.895,6.138,4.392,12.323,3.6,17.632-.907,6.1-8.509,6.08-11.171,12-6.009,13.352,5.61,38.838,21.725,38.119L202.3,199.1c12.451-7.1,22.169-3.866,34.592-7.042,8.041-2.056,10.9-9.954,10.59-17.7C246.914,160.389,238.861,166.962,231.245,161.686Z" transform="translate(-112.854 -137.841)" fill="#713e3d"/>
        <path id="Path_296" data-name="Path 296" d="M217.364,161.58a21.073,21.073,0,0,0-5.151.684c-8.923,2.156-17.676,5.155-26.546,7.547-5.214,1.408-17.093,4.187-17.8,11.258-.454,4.548,0,9.09-.365,13.628-.672,8.529-3.688,15.972-7.956,22.988,1.406,3.106,2.915,6.172,4.6,9.129a54.121,54.121,0,0,0,6.133,9.15,46.684,46.684,0,0,0,17.108,12.32c7.832,3.22,17.557,3.819,24.51-1.51,6.388-4.88,9.67-14.959,11.9-22.659,2.12-7.327.446-16.031-.154-23.683C222.7,188.408,224.763,172.162,217.364,161.58Z" transform="translate(-105.958 -124.578)" fill="#e6b48f"/>
        <g id="Group_9275" data-name="Group 9275" transform="translate(70.85 62.652)">
          <path id="Path_297" data-name="Path 297" d="M170.621,188.587c0,5.825,3.027,10.545,6.76,10.545s6.758-4.72,6.758-10.545-3.025-10.551-6.758-10.551S170.621,182.762,170.621,188.587Z" transform="translate(-170.618 -178.036)" fill="#fff"/>
          <g id="Group_9274" data-name="Group 9274" transform="translate(0 0.005)">
            <g id="Group_9273" data-name="Group 9273" clip-path="url(#clip-path)">
              <g id="Group_9272" data-name="Group 9272" transform="translate(4.015 5.118)">
                <path id="Path_298" data-name="Path 298" d="M173.348,188.294c-.69,4.28,1.021,8.119,3.828,8.573s5.642-2.654,6.333-6.932-1.022-8.115-3.833-8.568S174.038,184.017,173.348,188.294Z" transform="translate(-173.195 -181.323)" fill="#745345"/>
                <path id="Path_299" data-name="Path 299" d="M174.035,187.93c-.541,3.354.751,6.35,2.888,6.7s4.3-2.1,4.841-5.448-.75-6.345-2.882-6.688S174.574,184.582,174.035,187.93Z" transform="translate(-172.794 -180.689)" fill="#390a0a"/>
                <path id="Path_300" data-name="Path 300" d="M173.87,182.572c-.115.712.968,1.479,2.421,1.713s2.721-.151,2.837-.864-.973-1.475-2.421-1.71S173.984,181.863,173.87,182.572Z" transform="translate(-172.822 -181.144)" fill="#fff"/>
              </g>
            </g>
          </g>
        </g>
        <g id="Group_9279" data-name="Group 9279" transform="translate(99.142 62.652)">
          <path id="Path_302" data-name="Path 302" d="M188.772,188.587c0,5.825,3.029,10.545,6.762,10.545s6.758-4.72,6.758-10.545-3.025-10.551-6.758-10.551S188.772,182.762,188.772,188.587Z" transform="translate(-188.769 -178.036)" fill="#fff"/>
          <g id="Group_9278" data-name="Group 9278" transform="translate(0 0.005)">
            <g id="Group_9277" data-name="Group 9277" clip-path="url(#clip-path-2)">
              <g id="Group_9276" data-name="Group 9276" transform="translate(4.016 5.118)">
                <path id="Path_303" data-name="Path 303" d="M191.5,188.294c-.692,4.28,1.021,8.119,3.827,8.573s5.644-2.654,6.333-6.932-1.021-8.115-3.831-8.568S192.189,184.017,191.5,188.294Z" transform="translate(-191.347 -181.323)" fill="#745345"/>
                <path id="Path_304" data-name="Path 304" d="M192.187,187.93c-.542,3.354.75,6.35,2.888,6.7s4.3-2.1,4.84-5.448-.748-6.345-2.88-6.688S192.727,184.582,192.187,187.93Z" transform="translate(-190.946 -180.689)" fill="#390a0a"/>
                <path id="Path_305" data-name="Path 305" d="M192.022,182.572c-.117.712.968,1.479,2.421,1.713s2.721-.151,2.837-.864-.973-1.475-2.422-1.71S192.134,181.863,192.022,182.572Z" transform="translate(-190.974 -181.144)" fill="#fff"/>
              </g>
            </g>
          </g>
        </g>
        <g id="Group_9280" data-name="Group 9280" transform="translate(40.961 70.793)">
          <path id="Path_307" data-name="Path 307" d="M166.671,189.218s-15.277-14.468-15.228,1.685,12.367,20.31,18.682,16.954S166.671,189.218,166.671,189.218Z" transform="translate(-151.443 -183.259)" fill="#e6b48f"/>
          <path id="Path_308" data-name="Path 308" d="M165.169,191.076s-10.25-8.983-11.449-3.827,1.147,10.644,1.147,10.644-.373-6.623,5.253-4.4c0,0-1.557,11.235,6.648,5.791C166.768,199.284,169.611,195.189,165.169,191.076Z" transform="translate(-150.361 -181.922)" fill="#de9e85"/>
        </g>
        <path id="Path_309" data-name="Path 309" d="M190.682,194.917c-.917-4.5-2.53-11.483-5.212-10.507-2.933,1.071-1.284,12.272-.821,14.451.58,2.723,4.8,11.8,8.95,9.982C197.193,207.265,192.978,199.28,190.682,194.917Z" transform="translate(-92.423 -111.874)" fill="#c78e78"/>
        <path id="Path_310" data-name="Path 310" d="M170.9,175.265a10.1,10.1,0,0,0-1.489,8.565c2.977-7.374,12.326-4.157,17.816-6.4C188.626,166.508,173.88,170.793,170.9,175.265Z" transform="translate(-100.652 -119.567)" fill="#713e3d"/>
        <path id="Path_311" data-name="Path 311" d="M200.923,171.928a13.235,13.235,0,0,1,3.239,8.007c-4.006-6.576-9.882-1.713-14.377-2.845C186.011,166.786,197.653,168.163,200.923,171.928Z" transform="translate(-89.477 -120.357)" fill="#713e3d"/>
        <path id="Path_312" data-name="Path 312" d="M224.534,307.3a180.115,180.115,0,0,1-18.07-12.934,161.879,161.879,0,0,1-16.056-15.646A130.26,130.26,0,0,1,178.393,262.3a42.415,42.415,0,0,1-1.607-7.458,19.054,19.054,0,0,1,.1-5.259c.223-1.436.963-2.676,1.119-4.115a.523.523,0,0,0-.781-.449c-2.831,1.931-2.5,6.846-2.2,9.823a24.06,24.06,0,0,0,.393,2.5c-2.941-5.522-5-11.463-7.987-16.969-.178-.329-.633-.092-.57.242,2.687,14.451,11.463,28.1,20.854,39.122,9.651,11.327,22.453,22.613,36.138,28.745A.68.68,0,0,0,224.534,307.3Z" transform="translate(-101.875 -80.648)" fill="#dfe3eb"/>
        <path id="Path_313" data-name="Path 313" d="M199.988,320.039c-10.646-7.558-20.707-14.951-29.215-24.944a149.932,149.932,0,0,1-11.368-15.017c-3.49-5.337-5.777-11.391-9.256-16.684-.21-.318-.828-.235-.782.212.53,5.3,3.368,10.6,6.161,15.221-1.969-1.253-4.213-2.163-6.252-3.309-.647-.365-1.492.385-1.054,1.052,2.327,3.548,7.412,3.384,9.949,6.7a.74.74,0,0,0,.332.238,143.952,143.952,0,0,0,9.692,12.561,92.916,92.916,0,0,0,14.117,13.723c5.407,4.174,11.318,7.634,16.97,11.455C200.036,321.752,200.711,320.554,199.988,320.039Z" transform="translate(-112.349 -67.802)" fill="#dfe3eb"/>
        <path id="Path_314" data-name="Path 314" d="M227.02,213.151a53.857,53.857,0,0,0-2.846-11.965s-3.163,6.889-4.547,8.66c-1.479,1.892-4.31,2.067-6.478,2.17-2.785.131-4.8.256-6.165,2.187-1.545-1.431-4.018-1.507-6.193-1.489a22.725,22.725,0,0,1-6.614-.4c-3.538-.988-6.794-3.116-9.977-4.924-5.463-3.1-10.337-5.618-14.471-10.616-4.257-5.144-6.378-11.408-7.61-17.934-.185-.98-1.68-.733-1.671.234a29.02,29.02,0,0,0,3.844,13.643c.77,5.415-.027,11.224.073,16.566.123,6.791,1.111,13.469,3.986,19.636,3.593,7.712,10.722,13.126,18.365,15.964,11.534,4.282,30.472,9.544,37.457-5.653,2.145-4.668,2.435-8.361,2.946-13.444A57.451,57.451,0,0,0,227.02,213.151Z" transform="translate(-105.45 -115.282)" fill="#713e3d"/>
        <path id="Path_315" data-name="Path 315" d="M180.041,202.067s16.39,5.96,26.075.747C206.116,202.814,196.431,235.594,180.041,202.067Z" transform="translate(-94.505 -101.958)" fill="#fff"/>
      </g>
      <g id="Group_9290" data-name="Group 9290" transform="translate(68.143 138.665)">
        <g id="Group_9284" data-name="Group 9284" transform="translate(371.678 9.181)">
          <g id="Group_9282" data-name="Group 9282" transform="translate(7.775)">
            <path id="Path_316" data-name="Path 316" d="M420.506,287.369c-4.308,1.38-5.505,3.756-5.131,7.176.683,6.207,11.021,9.873,16.945,6.2a1,1,0,0,0,.731.4c6.576.932,15.048-.419,19.071-4.888,2.581-2.866,2.971-6.084,1.133-9.29-1.713-2.987-6.667-7-3.555-10.443,2.377-2.631,5.964-4.166,9.259-6.037,7.875-4.469,7.711-11.283-1.517-14.178-5.429-1.7-1.634-7.366-1.833-10.7a10.36,10.36,0,0,0-1.969-6.082,18.066,18.066,0,0,0-12.024-6.7c-10.847-1.172-15.875,5.739-15.227,13.308a51.9,51.9,0,0,0,1.944,8.652c.225.857,2.276,7.084-1.884,6.23a30.793,30.793,0,0,1-3.71-1c-3.792-1.288-7.413-2.361-11.528-1.256-10.228,2.748-3.78,15.9,1.663,19.608C415.362,280.066,427.74,285.052,420.506,287.369Z" transform="translate(-405.803 -232.693)" fill="#558570"/>
            <path id="Path_317" data-name="Path 317" d="M418.5,289.138c1.323,1.44,4.648,1.03,6.439,2.181a5.47,5.47,0,0,1,.429.355,18.119,18.119,0,0,1,.637-5.544.657.657,0,0,1,.02-.293c1.149-3.367,1.587-6.7-.321-9.977-1.258-2.157-4.737-3.644-6.98-5.178-3.323-2.276-4.565-4.985-3.495-8.274.355-1.1,2.589-.634,2.23.466-1.925,5.9,6.826,7.931,10.241,12.1a7.915,7.915,0,0,1,1.7,4.8c3.3-4.24,7.48-7.351,8.2-13a43.85,43.85,0,0,0-1.754-18.293c-1.139-3.7-2.567-7.466.327-10.88.8-.951,2.809-.072,2,.885-3.512,4.143.412,10.245,1.171,14.748a50.613,50.613,0,0,1,.552,13.026,12.2,12.2,0,0,1,1.824-1.47c3.368-2.2,7.254-3.041,8.992-6.484.527-1.044,2.767-.591,2.234.471-1.211,2.389-3.125,3.978-5.873,5.426a32.3,32.3,0,0,0-5.106,2.831,9.833,9.833,0,0,0-2.907,4.626.808.808,0,0,1-.4.441c-1.417,2.91-4.207,5.487-6.5,7.942a15.606,15.606,0,0,0-4.414,11.442,10.964,10.964,0,0,1,3.6-3.158c2.916-1.576,7.92-1.234,8.144-4.6.073-1.127,2.388-1.13,2.313,0-.156,2.358-1.457,3.7-4.332,4.541-1.953.57-3.724.8-5.384,1.872a8.817,8.817,0,0,0-3.822,5.536.758.758,0,0,1-.145.29c.061.408.114.817.185,1.233.192,1.122-2.123,1.108-2.311,0-.042-.218-.064-.427-.1-.645a.757.757,0,0,1-.634-.585c-.383-1.912-1.007-3.228-3.529-3.908-2.1-.57-3.833-.524-5.223-2.036C415.649,289.1,417.654,288.217,418.5,289.138Z" transform="translate(-400.745 -230.18)" fill="#76b375"/>
          </g>
          <g id="Group_9283" data-name="Group 9283" transform="translate(0 58.577)">
            <path id="Path_318" data-name="Path 318" d="M450.506,317.885l4.67-43.316h-46.7l2.035,43.316Z" transform="translate(-396.538 -267.874)" fill="#98733f"/>
            <path id="Path_319" data-name="Path 319" d="M400.815,286.547l4.664-14.151,59.774-2.122,5.608,16.983Z" transform="translate(-400.815 -270.274)" fill="#cc9252"/>
          </g>
        </g>
        <g id="Group_9289" data-name="Group 9289">
          <g id="Group_9287" data-name="Group 9287" transform="translate(144.051)">
            <g id="Group_9285" data-name="Group 9285" transform="translate(36.693)">
              <path id="Path_320" data-name="Path 320" d="M311.1,226.8,278.319,330.875h154.1L465.205,226.8Z" transform="translate(-278.319 -226.803)" fill="#5e5e5e"/>
              <path id="Path_321" data-name="Path 321" d="M356.962,265.576c-2.09,6.949-7.683,11.408-12.491,9.958s-7.016-8.247-4.927-15.2,7.683-11.4,12.491-9.96S359.051,258.629,356.962,265.576Z" transform="translate(-244.554 -213.784)" fill="#b4f7e0"/>
            </g>
            <g id="Group_9286" data-name="Group 9286" transform="translate(0 104.554)">
              <path id="Path_322" data-name="Path 322" d="M446.767,293.931c0,7.443-5.356,12.691-11.965,12.691H266.746c-6.612,0-11.968-5.248-11.968-12.691,0-.189.02.221.026.221H446.739C446.745,294.152,446.767,293.742,446.767,293.931Z" transform="translate(-254.778 -293.881)" fill="#5e5e5e"/>
              <rect id="Rectangle_4979" data-name="Rectangle 4979" width="105.991" height="6.235" transform="translate(61.696 0.271)" fill="#444"/>
            </g>
          </g>
          <g id="Group_9288" data-name="Group 9288" transform="translate(63.264 129.329)">
            <path id="Path_323" data-name="Path 323" d="M214.34,518.931l38.677-209.156H222.679L202.948,518.931Z" transform="translate(-202.948 -309.776)" fill="#c4a577"/>
            <path id="Path_324" data-name="Path 324" d="M410.168,518.931l-38.68-209.156H401.83l19.73,209.156Z" transform="translate(-108.785 -309.776)" fill="#c4a577"/>
          </g>
          <rect id="Rectangle_4980" data-name="Rectangle 4980" width="469.167" height="15.587" transform="translate(0 117.295)" fill="#e4c188"/>
        </g>
      </g>
    </g>
    <g id="Group_9294" data-name="Group 9294" transform="translate(472.636 1435.082)">
      <path id="Path_325" data-name="Path 325" d="M496.723,218.02a8.351,8.351,0,0,1-8.322,8.266H269.875a8.52,8.52,0,0,1-8.515-8.266V174.9c0-4.534,3.978-7.845,8.515-7.845H488.4c4.537,0,8.322,3.311,8.322,7.845Z" transform="translate(-261.36 -167.055)" fill="#a0d9d5"/>
      <path id="Path_326" data-name="Path 326" d="M473.816,175.315v43.531c0,4.536-4.129,7.44-8.665,7.44H302.36v-59.23H465.151C469.687,167.055,473.816,170.779,473.816,175.315Z" transform="translate(-238.454 -167.055)" fill="#e6effd"/>
      <g id="Group_9293" data-name="Group 9293" transform="translate(77.935 7.793)">
        <path id="Path_327" data-name="Path 327" d="M456.318,174.393a2.338,2.338,0,0,1-2.338,2.338H313.7a2.338,2.338,0,0,1-2.338-2.338h0a2.339,2.339,0,0,1,2.338-2.338H453.98a2.339,2.339,0,0,1,2.338,2.338Z" transform="translate(-311.36 -172.055)" fill="#fff"/>
        <path id="Path_328" data-name="Path 328" d="M456.318,182.393a2.338,2.338,0,0,1-2.338,2.338H313.7a2.338,2.338,0,0,1-2.338-2.338h0a2.339,2.339,0,0,1,2.338-2.338H453.98a2.339,2.339,0,0,1,2.338,2.338Z" transform="translate(-311.36 -167.585)" fill="#fff"/>
        <path id="Path_329" data-name="Path 329" d="M456.318,198.393a2.377,2.377,0,0,1-2.414,2.338H313.774a2.376,2.376,0,0,1-2.414-2.338h0a2.377,2.377,0,0,1,2.414-2.338H453.9a2.378,2.378,0,0,1,2.414,2.338Z" transform="translate(-311.36 -158.646)" fill="#fff"/>
        <g id="Group_9292" data-name="Group 9292" transform="translate(0 21.822)">
          <path id="Path_330" data-name="Path 330" d="M403.323,190.02c0,1.334-2.129,3.828-3.468,3.828H313.033c-1.336,0-1.673-2.494-1.673-3.828v-.259c0-1.334.337-3.707,1.673-3.707h86.822c1.339,0,3.468,2.372,3.468,3.707Z" transform="translate(-311.36 -186.055)" fill="#fff"/>
          <path id="Path_331" data-name="Path 331" d="M419.562,188.393a2.338,2.338,0,0,1-2.338,2.338H376.7a2.338,2.338,0,0,1-2.338-2.338h0a2.339,2.339,0,0,1,2.338-2.338h40.526a2.339,2.339,0,0,1,2.338,2.338Z" transform="translate(-276.162 -186.055)" fill="#fff"/>
        </g>
      </g>
    </g>
    <g id="Group_9295" data-name="Group 9295" transform="translate(569.275 1333.767)">
      <path id="Path_332" data-name="Path 332" d="M385.708,103.835v42.883c0,.7.187,1.769-.243,2.263-.516.6-.832,1.393-1.68,1.393H325.979l-.567-.405a3.87,3.87,0,0,1-2.051-3.251V103.835c0-1.551,1.769-1.78,3.32-1.78h57.1C385.337,102.055,385.708,102.284,385.708,103.835Z" transform="translate(-323.36 -102.055)" fill="#c4d5dc"/>
      <path id="Path_333" data-name="Path 333" d="M385.708,103.833v4.308l-31.085,19.85L323.36,108.082v-4.249c0-1.551,1.763-1.778,3.314-1.778H383.79C385.34,102.055,385.708,102.283,385.708,103.833Z" transform="translate(-323.36 -102.055)" fill="#deebf0"/>
    </g>
    <g id="Group_9296" data-name="Group 9296" transform="translate(611.36 1360.265)">
      <path id="Path_334" data-name="Path 334" d="M412.708,122.631v42.883a3.7,3.7,0,0,1-.744,2.145,3.218,3.218,0,0,1-2.173,1.275H351.986l-.07-.287a3.243,3.243,0,0,1-1.556-3.133V122.631c0-1.552.776-3.576,2.327-3.576h57.1C411.345,119.055,412.708,121.078,412.708,122.631Z" transform="translate(-350.36 -119.055)" fill="#b6d1dc"/>
      <path id="Path_335" data-name="Path 335" d="M412.708,122.629v4.307l-31.08,19.85L350.36,126.878v-4.249c0-1.552.768-3.574,2.321-3.574H409.8C411.35,119.055,412.708,121.077,412.708,122.629Z" transform="translate(-350.36 -119.055)" fill="#cfe7f0"/>
    </g>
    <g id="Group_9298" data-name="Group 9298" transform="translate(258.444 1370.892)">
      <path id="Path_340" data-name="Path 340" d="M138.62,165.964a1.268,1.268,0,0,1-.507,1.012,3.97,3.97,0,0,1-1.2.661,7.4,7.4,0,0,1-1.428.351,8.741,8.741,0,0,1-1.167.1,8,8,0,0,1-2.489-.4,6.349,6.349,0,0,1-2.23-1.256,5.608,5.608,0,0,1-1.231-1.4,6.382,6.382,0,0,1-.687-1.582,8.646,8.646,0,0,1-.3-1.724c-.044-.6-.065-1.224-.065-1.88q-.051-1.919-.078-3.839t-.182-3.838c-.034-.276-.059-.561-.076-.856a7.736,7.736,0,0,0-.1-.882,6.714,6.714,0,0,0-.207-.856,2.709,2.709,0,0,0-.39-.776c-.19.051-.379.1-.569.14a2.546,2.546,0,0,1-.572.065c-.5,0-.825-.112-.973-.337a1.885,1.885,0,0,1-.22-1.012,2.468,2.468,0,0,1,.234-1.178,2.128,2.128,0,0,1,.57-.689,4.753,4.753,0,0,1,.751-.466,2.885,2.885,0,0,0,.753-.546,2.692,2.692,0,0,0,.57-.921,4.394,4.394,0,0,0,.232-1.593,8.641,8.641,0,0,0-.376-2.516c-.249-.831-.532-1.663-.842-2.5s-.592-1.693-.843-2.567a9.851,9.851,0,0,1-.376-2.736,6.968,6.968,0,0,1,.427-2.477,5.353,5.353,0,0,1,1.22-1.919,5.577,5.577,0,0,1,1.892-1.231,6.6,6.6,0,0,1,2.477-.441,7.03,7.03,0,0,1,.971.1,9.388,9.388,0,0,1,1.336.312,5.208,5.208,0,0,1,1.18.519.871.871,0,0,1,.507.726.7.7,0,0,1-.351.581,3.12,3.12,0,0,1-.817.4,6.257,6.257,0,0,1-.946.234,5.025,5.025,0,0,1-.74.078,4.289,4.289,0,0,1-.466-.027,4.245,4.245,0,0,0-.466-.027,2.177,2.177,0,0,0-1.867.765,3.235,3.235,0,0,0-.57,1.984,9.741,9.741,0,0,0,.415,2.826q.416,1.375.921,2.723t.934,2.723a9.455,9.455,0,0,1,.429,2.827,6.684,6.684,0,0,1-.468,2.475,5.937,5.937,0,0,1-1.4,2.089A5.941,5.941,0,0,1,130.4,149.5a17.518,17.518,0,0,1,.544,3.022c.1,1.08.157,2.187.157,3.318s.016,2.209.05,3.23a25.936,25.936,0,0,0,.221,2.735,3.787,3.787,0,0,0,.661,1.828,2.716,2.716,0,0,0,.946.8,2.654,2.654,0,0,0,1.233.285,2.372,2.372,0,0,0,.881-.154,5.848,5.848,0,0,0,.714-.338q.323-.18.609-.337a1.232,1.232,0,0,1,.6-.156,1.008,1.008,0,0,1,.634.235,2.212,2.212,0,0,1,.519.583,2.98,2.98,0,0,1,.337.739A2.386,2.386,0,0,1,138.62,165.964Z" transform="translate(-123.942 -125.873)" fill="#b7d1e6"/>
      <path id="Path_341" data-name="Path 341" d="M147.058,146.307a2.6,2.6,0,0,1-.22,1.192,2,2,0,0,1-.569.675,6.152,6.152,0,0,1-.74.466,3.333,3.333,0,0,0-.739.546,2.448,2.448,0,0,0-.57.921A4.6,4.6,0,0,0,144,151.7a8.61,8.61,0,0,0,.377,2.53q.374,1.232.815,2.491c.295.837.567,1.694.818,2.566a9.926,9.926,0,0,1,.376,2.736,6.868,6.868,0,0,1-.429,2.491,5.413,5.413,0,0,1-1.217,1.9,5.559,5.559,0,0,1-1.906,1.233,6.672,6.672,0,0,1-2.464.44,7.073,7.073,0,0,1-.973-.1,8.967,8.967,0,0,1-1.322-.312,5.239,5.239,0,0,1-1.155-.507.832.832,0,0,1-.493-.686.712.712,0,0,1,.337-.583,2.922,2.922,0,0,1,.8-.4,6.381,6.381,0,0,1,.934-.232,4.8,4.8,0,0,1,.726-.078h.985a2.119,2.119,0,0,0,1.816-.765,3.24,3.24,0,0,0,.57-1.983,9.513,9.513,0,0,0-.427-2.827q-.428-1.375-.935-2.723t-.92-2.723a9.7,9.7,0,0,1-.415-2.826,6.468,6.468,0,0,1,.466-2.452,6,6,0,0,1,1.4-2.061,5.81,5.81,0,0,1-1.153-2.321,18.825,18.825,0,0,1-.532-3.035q-.157-1.623-.168-3.332t-.065-3.242a26.39,26.39,0,0,0-.22-2.735,3.773,3.773,0,0,0-.662-1.827,2.472,2.472,0,0,0-.932-.8,2.635,2.635,0,0,0-1.194-.285,2.453,2.453,0,0,0-.907.154,5.939,5.939,0,0,0-.712.338c-.217.12-.426.232-.623.337a1.293,1.293,0,0,1-.609.156.961.961,0,0,1-.622-.234,2.4,2.4,0,0,1-.5-.583,3.46,3.46,0,0,1-.351-.74,2.194,2.194,0,0,1-.129-.672,1.267,1.267,0,0,1,.505-1.013,4.006,4.006,0,0,1,1.206-.661,7.445,7.445,0,0,1,1.426-.351,8.716,8.716,0,0,1,1.167-.1,7.988,7.988,0,0,1,2.516.4,6.362,6.362,0,0,1,2.2,1.258,5.894,5.894,0,0,1,1.233,1.439,6.657,6.657,0,0,1,.686,1.582,9.132,9.132,0,0,1,.313,1.711q.077.893.1,1.853.054,1.948.053,3.852t.156,3.825c.017.277.039.563.064.857s.065.588.117.881a7.488,7.488,0,0,0,.209.868,2.349,2.349,0,0,0,.388.765c.207-.051.407-.1.6-.142a2.66,2.66,0,0,1,.6-.065.994.994,0,0,1,.921.363A1.9,1.9,0,0,1,147.058,146.307Z" transform="translate(-119.227 -125.873)" fill="#b7d1e6"/>
    </g>
    <g id="Group_9300" data-name="Group 9300" transform="translate(403.74 1509.151)">
      <path id="Path_344" data-name="Path 344" d="M227.308,239.52a.554.554,0,0,1-.274.466,2.4,2.4,0,0,1-.653.3,3.93,3.93,0,0,1-.767.151c-.26.025-.466.037-.616.037a1.629,1.629,0,0,1-.779-.176,2.26,2.26,0,0,1-.628-.527q-.3-.327-.892-1.068t-1.306-1.671q-.715-.931-1.47-1.973t-1.369-1.984c-.41-.628-.747-1.189-1.005-1.682a2.744,2.744,0,0,1-.39-1.119,2.278,2.278,0,0,1,.377-1.244c.251-.393.477-.767.678-1.118l3.668-6.835c.067-.148.156-.338.263-.564a6.937,6.937,0,0,1,.351-.641,2.77,2.77,0,0,1,.429-.527.735.735,0,0,1,.514-.226,1.149,1.149,0,0,1,.553.15,2.185,2.185,0,0,1,.5.377,1.949,1.949,0,0,1,.365.5,1.188,1.188,0,0,1,.139.528,1.836,1.836,0,0,1-.153.767c-.1.226-.2.457-.3.689l-2.061,4.071q-1.031,2.034-2.061,4.07a14.8,14.8,0,0,0,1.082,1.8c.436.627.9,1.256,1.393,1.883s.993,1.241,1.495,1.835.971,1.135,1.408,1.619c.115.136.26.287.427.454s.329.343.489.527a4.029,4.029,0,0,1,.415.578A1.115,1.115,0,0,1,227.308,239.52Z" transform="translate(-217.159 -212.035)" fill="#b7d1e6"/>
      <path id="Path_345" data-name="Path 345" d="M236.126,216.636a7.024,7.024,0,0,1-.224,1.771q-.227.867-.429,1.746-.8,3.72-1.532,7.4t-1.532,7.424q-.753,3.746-1.582,7.463t-1.482,7.46c-.034.235-.069.486-.1.754a3.714,3.714,0,0,1-.176.767,1.485,1.485,0,0,1-.377.6.983.983,0,0,1-.7.237,3.187,3.187,0,0,1-.842-.137,4.481,4.481,0,0,1-.929-.377,2.708,2.708,0,0,1-.742-.578,1.126,1.126,0,0,1-.3-.765,1.814,1.814,0,0,1,.025-.3,1.781,1.781,0,0,0,.025-.3q.376-1.81.8-3.618t.854-3.618l4.974-22.26q.1-.4.24-1.169c.09-.51.192-1.029.3-1.557s.221-1.026.338-1.495a5.463,5.463,0,0,1,.327-1,1.208,1.208,0,0,1,.3-.39.749.749,0,0,1,.454-.114,2.217,2.217,0,0,1,.817.164,2.863,2.863,0,0,1,.753.44,2.15,2.15,0,0,1,.541.653A1.7,1.7,0,0,1,236.126,216.636Z" transform="translate(-212.682 -214.575)" fill="#b7d1e6"/>
      <path id="Path_346" data-name="Path 346" d="M243.95,229.321a1.712,1.712,0,0,1-.114.6,4.4,4.4,0,0,1-.276.591c-.111.193-.228.385-.354.578a5.588,5.588,0,0,0-.312.539l-3.669,6.835c-.084.15-.176.338-.276.564a7.257,7.257,0,0,1-.34.667,2.425,2.425,0,0,1-.427.552.736.736,0,0,1-.516.226,1.153,1.153,0,0,1-.552-.15,2.233,2.233,0,0,1-.5-.379,1.841,1.841,0,0,1-.363-.514,1.3,1.3,0,0,1-.139-.564,1.937,1.937,0,0,1,.151-.742c.1-.242.2-.464.3-.666q1.031-2.086,2.061-4.1t2.061-4.095a14.971,14.971,0,0,0-1.08-1.8q-.655-.942-1.4-1.884t-1.507-1.835l-1.393-1.621c-.118-.115-.26-.257-.427-.426s-.332-.344-.489-.528a4.4,4.4,0,0,1-.415-.552,1.011,1.011,0,0,1-.176-.553.565.565,0,0,1,.276-.489,2.088,2.088,0,0,1,.653-.29,4.9,4.9,0,0,1,.765-.139c.26-.025.466-.036.616-.036a1.626,1.626,0,0,1,.779.175,2.741,2.741,0,0,1,.628.479q.3.351.892,1.093t1.308,1.671q.713.931,1.468,1.972t1.369,1.984a19.7,19.7,0,0,1,1.007,1.7A2.844,2.844,0,0,1,243.95,229.321Z" transform="translate(-207.862 -212.035)" fill="#b7d1e6"/>
    </g>
    <g id="Group_9301" data-name="Group 9301" transform="translate(140 1548.725)">
      <path id="Path_347" data-name="Path 347" d="M58.5,254.806c0,.43-.008.943-.02,1.546s-.041,1.247-.084,1.944-.114,1.411-.209,2.145-.226,1.456-.39,2.165a13.8,13.8,0,0,1-.625,2.009,7.053,7.053,0,0,1-.921,1.662,4.306,4.306,0,0,1-1.261,1.13,3.512,3.512,0,0,1-3.226.047,4,4,0,0,1-1.186-.979,6.258,6.258,0,0,1-.864-1.386,10.955,10.955,0,0,1-.6-1.612c-.157-.556-.288-1.11-.388-1.658s-.184-1.055-.248-1.51q-.264-1.8-.4-3.605t-.132-3.644q0-1.84.15-3.691a19.011,19.011,0,0,1,.647-3.6c-.075-.114-.145-.228-.209-.343a.755.755,0,0,1-.1-.379.955.955,0,0,1,.019-.2,1.093,1.093,0,0,1,.058-.181,11.454,11.454,0,0,1,.664-1.593,7.76,7.76,0,0,1,1-1.527A5.219,5.219,0,0,1,51.5,240.41a3.152,3.152,0,0,1,1.652-.446,3.228,3.228,0,0,1,1.422.3,3.638,3.638,0,0,1,1.1.817,5.38,5.38,0,0,1,.817,1.166,9.217,9.217,0,0,1,.578,1.376c.157.482.291.963.4,1.442s.2.931.274,1.348q.381,2.088.57,4.176T58.5,254.806Zm-6.794-9.642a10.432,10.432,0,0,0-.55,1.764,19.584,19.584,0,0,0-.323,1.936q-.115.987-.151,1.967t-.039,1.85c0,.214.011.564.028,1.049s.055,1.051.106,1.691.114,1.331.19,2.078.164,1.495.263,2.249.22,1.473.352,2.163a15.5,15.5,0,0,0,.457,1.83,5.7,5.7,0,0,0,.56,1.281c.2.323.422.486.662.486a.628.628,0,0,0,.466-.248,2.768,2.768,0,0,0,.39-.588,6.687,6.687,0,0,0,.293-.687c.083-.223.143-.4.179-.527a20.2,20.2,0,0,0,.8-3.635,30.355,30.355,0,0,0,.229-3.73q0-1.4-.067-2.971t-.237-3.13q-.173-1.566-.474-3.085a20.519,20.519,0,0,0-.779-2.846c-.1-.29-.217-.581-.341-.873a2.327,2.327,0,0,0-.532-.761,4.208,4.208,0,0,0-.265.44c-.153.263-.315.556-.485.871s-.329.616-.474.9S51.734,245.1,51.709,245.164Z" transform="translate(-47.953 -239.964)" fill="#b7d1e6"/>
      <path id="Path_348" data-name="Path 348" d="M61.241,266.149a.575.575,0,0,1-.3.578,1.565,1.565,0,0,1-.683.142,3.788,3.788,0,0,1-.684-.075,3.661,3.661,0,0,1-.683-.19,1.233,1.233,0,0,1-.789-.912,2.621,2.621,0,0,1-.065-.6c0-.209-.006-.429-.019-.655q-.341-5.847-.552-11.615t-.207-11.614a1.363,1.363,0,0,1,.114-.608c.075-.151.265-.228.569-.228a2.542,2.542,0,0,1,1.054.246,1.5,1.5,0,0,1,.768.74,1.534,1.534,0,0,1,.1.513c.017.24.034.494.047.761s.019.527.019.786.008.458.019.6q.152,4.9.341,9.754t.684,9.756c.037.44.092.878.161,1.309A8.088,8.088,0,0,1,61.241,266.149Z" transform="translate(-42.755 -239.733)" fill="#b7d1e6"/>
      <path id="Path_349" data-name="Path 349" d="M72.679,254.806c0,.43-.006.943-.017,1.546s-.042,1.247-.086,1.944-.115,1.411-.21,2.145-.224,1.456-.388,2.165a13.615,13.615,0,0,1-.627,2.009,7.106,7.106,0,0,1-.92,1.662,4.291,4.291,0,0,1-1.263,1.13,3.509,3.509,0,0,1-3.225.047,3.984,3.984,0,0,1-1.188-.979,6.317,6.317,0,0,1-.864-1.386,10.773,10.773,0,0,1-.6-1.612q-.238-.835-.39-1.658c-.1-.553-.182-1.055-.246-1.51q-.267-1.8-.4-3.605t-.131-3.644q0-1.84.151-3.691a18.763,18.763,0,0,1,.644-3.6c-.075-.114-.145-.228-.209-.343a.754.754,0,0,1-.094-.379.954.954,0,0,1,.019-.2,1.078,1.078,0,0,1,.056-.181,11.845,11.845,0,0,1,.664-1.593,7.837,7.837,0,0,1,1-1.527,5.245,5.245,0,0,1,1.319-1.139,3.142,3.142,0,0,1,1.651-.446,3.235,3.235,0,0,1,1.423.3,3.677,3.677,0,0,1,1.1.817,5.322,5.322,0,0,1,.815,1.166,9.056,9.056,0,0,1,.578,1.376q.239.722.4,1.442t.276,1.348q.379,2.088.569,4.176T72.679,254.806Zm-6.793-9.642a10.294,10.294,0,0,0-.55,1.764,19.137,19.137,0,0,0-.323,1.936q-.115.987-.153,1.967t-.037,1.85c0,.214.009.564.028,1.049s.055,1.051.1,1.691.115,1.331.19,2.078.164,1.495.265,2.249.218,1.473.352,2.163a15.829,15.829,0,0,0,.455,1.83,5.777,5.777,0,0,0,.56,1.281c.2.323.424.486.666.486a.625.625,0,0,0,.463-.248,2.71,2.71,0,0,0,.39-.588,6.374,6.374,0,0,0,.295-.687c.083-.223.142-.4.181-.527a20.468,20.468,0,0,0,.8-3.635,30.355,30.355,0,0,0,.228-3.73q0-1.4-.067-2.971t-.237-3.13q-.171-1.566-.474-3.085a20.522,20.522,0,0,0-.778-2.846c-.1-.29-.217-.581-.341-.873a2.327,2.327,0,0,0-.532-.761,4.377,4.377,0,0,0-.267.44c-.151.263-.313.556-.483.871s-.33.616-.475.9S65.913,245.1,65.886,245.164Z" transform="translate(-40.032 -239.964)" fill="#b7d1e6"/>
      <path id="Path_350" data-name="Path 350" d="M75.418,266.149a.575.575,0,0,1-.3.578,1.572,1.572,0,0,1-.684.142,3.817,3.817,0,0,1-.684-.075,3.609,3.609,0,0,1-.681-.19,1.224,1.224,0,0,1-.789-.912,2.621,2.621,0,0,1-.065-.6c0-.209-.008-.429-.02-.655q-.339-5.847-.55-11.615t-.207-11.614a1.387,1.387,0,0,1,.112-.608c.076-.151.265-.228.57-.228a2.535,2.535,0,0,1,1.052.246,1.487,1.487,0,0,1,.768.74,1.46,1.46,0,0,1,.1.513c.02.24.036.494.048.761s.019.527.019.786.006.458.019.6q.154,4.9.343,9.754t.683,9.756c.037.44.092.878.161,1.309A8.088,8.088,0,0,1,75.418,266.149Z" transform="translate(-34.834 -239.733)" fill="#b7d1e6"/>
      <path id="Path_351" data-name="Path 351" d="M86.857,254.806c0,.43-.006.943-.019,1.546s-.041,1.247-.086,1.944-.112,1.411-.209,2.145-.224,1.456-.388,2.165a14,14,0,0,1-.627,2.009,7.107,7.107,0,0,1-.92,1.662,4.331,4.331,0,0,1-1.263,1.13,3.512,3.512,0,0,1-3.227.047,3.992,3.992,0,0,1-1.185-.979,6.268,6.268,0,0,1-.867-1.386,10.942,10.942,0,0,1-.6-1.612q-.236-.835-.39-1.658c-.1-.553-.184-1.055-.248-1.51q-.264-1.8-.4-3.605t-.132-3.644q0-1.84.151-3.691a19.008,19.008,0,0,1,.645-3.6c-.075-.114-.145-.228-.209-.343a.771.771,0,0,1-.094-.379.962.962,0,0,1,.017-.2,1.5,1.5,0,0,1,.058-.181,11.648,11.648,0,0,1,.664-1.593,7.9,7.9,0,0,1,1-1.527,5.225,5.225,0,0,1,1.32-1.139,3.142,3.142,0,0,1,1.651-.446,3.252,3.252,0,0,1,1.425.3,3.664,3.664,0,0,1,1.1.817,5.322,5.322,0,0,1,.815,1.166,9.062,9.062,0,0,1,.58,1.376c.157.482.291.963.4,1.442s.2.931.274,1.348q.379,2.088.57,4.176T86.857,254.806Zm-6.794-9.642a10.291,10.291,0,0,0-.549,1.764,19.143,19.143,0,0,0-.324,1.936q-.115.987-.151,1.967T79,252.681c0,.214.009.564.028,1.049s.053,1.051.1,1.691.114,1.331.19,2.078.164,1.495.265,2.249.218,1.473.351,2.163a15.811,15.811,0,0,0,.457,1.83,5.7,5.7,0,0,0,.56,1.281c.2.323.424.486.664.486a.633.633,0,0,0,.466-.248,2.888,2.888,0,0,0,.388-.588,6.706,6.706,0,0,0,.295-.687c.081-.223.14-.4.179-.527a20.332,20.332,0,0,0,.8-3.635,30.052,30.052,0,0,0,.229-3.73q0-1.4-.067-2.971t-.238-3.13q-.168-1.566-.472-3.085a20.519,20.519,0,0,0-.778-2.846q-.154-.435-.343-.873a2.3,2.3,0,0,0-.532-.761,4.551,4.551,0,0,0-.265.44c-.153.263-.313.556-.485.871s-.327.616-.475.9S80.089,245.1,80.062,245.164Z" transform="translate(-32.112 -239.964)" fill="#b7d1e6"/>
      <path id="Path_352" data-name="Path 352" d="M89.6,266.149a.574.574,0,0,1-.3.578,1.565,1.565,0,0,1-.683.142,3.8,3.8,0,0,1-.684-.075,3.661,3.661,0,0,1-.683-.19,1.373,1.373,0,0,1-.55-.4,1.351,1.351,0,0,1-.237-.514,2.535,2.535,0,0,1-.067-.6c0-.209-.006-.429-.02-.655q-.339-5.847-.549-11.615t-.209-11.614a1.363,1.363,0,0,1,.114-.608c.076-.151.267-.228.569-.228a2.549,2.549,0,0,1,1.055.246,1.49,1.49,0,0,1,.767.74,1.575,1.575,0,0,1,.1.513c.019.24.034.494.048.761s.019.527.019.786,0,.458.017.6q.154,4.9.343,9.754t.683,9.756c.039.44.092.878.162,1.309A8.268,8.268,0,0,1,89.6,266.149Z" transform="translate(-26.914 -239.733)" fill="#b7d1e6"/>
      <path id="Path_353" data-name="Path 353" d="M94.834,266.149a.575.575,0,0,1-.306.578,1.555,1.555,0,0,1-.683.142,3.772,3.772,0,0,1-.683-.075,3.662,3.662,0,0,1-.683-.19,1.391,1.391,0,0,1-.552-.4,1.372,1.372,0,0,1-.235-.514,2.535,2.535,0,0,1-.067-.6c0-.209-.006-.429-.019-.655q-.344-5.847-.55-11.615t-.209-11.614a1.364,1.364,0,0,1,.114-.608c.075-.151.265-.228.57-.228a2.546,2.546,0,0,1,1.052.246,1.5,1.5,0,0,1,.768.74,1.466,1.466,0,0,1,.1.513c.02.24.036.494.048.761s.019.527.019.786.006.458.02.6q.152,4.9.341,9.754t.684,9.756c.036.44.09.878.159,1.309A7.915,7.915,0,0,1,94.834,266.149Z" transform="translate(-23.988 -239.733)" fill="#b7d1e6"/>
    </g>
    <g id="Group_9302" data-name="Group 9302" transform="translate(616.137 1289.194)">
      <path id="Path_354" data-name="Path 354" d="M363.976,88.3q0,.645-.019,1.548t-.086,1.945c-.042.7-.114,1.411-.209,2.143a21.508,21.508,0,0,1-.39,2.163,14.053,14.053,0,0,1-.625,2.012,7,7,0,0,1-.923,1.66,4.246,4.246,0,0,1-1.261,1.13,3.506,3.506,0,0,1-3.223.047,4,4,0,0,1-1.186-.977,6.343,6.343,0,0,1-.867-1.386,11.219,11.219,0,0,1-.6-1.613c-.157-.555-.287-1.11-.387-1.66s-.185-1.054-.249-1.509c-.175-1.2-.31-2.4-.4-3.605s-.133-2.416-.133-3.644.051-2.457.151-3.691a18.766,18.766,0,0,1,.645-3.6c-.075-.114-.147-.228-.209-.343a.755.755,0,0,1-.1-.379.945.945,0,0,1,.019-.2,1.045,1.045,0,0,1,.059-.179,11.456,11.456,0,0,1,.662-1.595,7.9,7.9,0,0,1,1-1.528,5.219,5.219,0,0,1,1.32-1.138,3.118,3.118,0,0,1,1.649-.447,3.237,3.237,0,0,1,1.425.3,3.676,3.676,0,0,1,1.1.817,5.435,5.435,0,0,1,.817,1.166,9.232,9.232,0,0,1,.578,1.378c.157.48.292.96.4,1.44s.2.931.276,1.348q.381,2.086.57,4.176T363.976,88.3Zm-6.794-9.641a10.333,10.333,0,0,0-.549,1.764c-.14.633-.246,1.28-.324,1.936s-.125,1.312-.153,1.966-.036,1.269-.036,1.85c0,.215.011.566.028,1.052s.055,1.051.1,1.69.112,1.331.19,2.078.162,1.5.265,2.249.217,1.473.351,2.163a15.944,15.944,0,0,0,.455,1.831,5.87,5.87,0,0,0,.561,1.28c.2.323.422.485.664.485a.623.623,0,0,0,.464-.246,2.7,2.7,0,0,0,.39-.589,6.3,6.3,0,0,0,.293-.683c.084-.228.143-.405.181-.532a20.423,20.423,0,0,0,.8-3.633,30.341,30.341,0,0,0,.226-3.73q0-1.405-.065-2.969t-.237-3.131q-.173-1.567-.475-3.085a20.524,20.524,0,0,0-.778-2.846c-.1-.29-.214-.581-.343-.873a2.3,2.3,0,0,0-.528-.759,3.563,3.563,0,0,0-.267.436c-.153.265-.312.556-.486.873s-.327.617-.474.9S357.208,78.6,357.181,78.659Z" transform="translate(-353.425 -73.459)" fill="#b7d1e6"/>
      <path id="Path_355" data-name="Path 355" d="M366.717,99.644a.577.577,0,0,1-.305.578,1.6,1.6,0,0,1-.683.143,4.335,4.335,0,0,1-1.367-.267,1.4,1.4,0,0,1-.55-.4,1.345,1.345,0,0,1-.237-.513,2.583,2.583,0,0,1-.067-.6c0-.209-.008-.427-.019-.655q-.339-5.845-.549-11.614t-.212-11.614a1.362,1.362,0,0,1,.115-.608c.075-.151.267-.226.569-.226a2.527,2.527,0,0,1,1.052.245,1.345,1.345,0,0,1,.874,1.253c.02.24.034.493.048.759s.019.528.019.787.008.46.019.6q.15,4.9.34,9.754t.686,9.754c.037.443.09.881.159,1.308A7.985,7.985,0,0,1,366.717,99.644Z" transform="translate(-348.227 -73.227)" fill="#b7d1e6"/>
      <path id="Path_356" data-name="Path 356" d="M378.154,88.3c0,.43-.009.946-.02,1.548s-.041,1.249-.086,1.945-.114,1.411-.209,2.143-.225,1.454-.39,2.163a13.855,13.855,0,0,1-.625,2.012,7.157,7.157,0,0,1-.921,1.66,4.316,4.316,0,0,1-1.259,1.13,3.516,3.516,0,0,1-3.228.047,3.96,3.96,0,0,1-1.186-.977,6.277,6.277,0,0,1-.864-1.386,10.86,10.86,0,0,1-.6-1.613c-.159-.555-.288-1.11-.39-1.66s-.184-1.054-.248-1.509q-.264-1.8-.4-3.605t-.131-3.644q0-1.84.151-3.691a18.644,18.644,0,0,1,.645-3.6c-.075-.114-.147-.228-.21-.343a.839.839,0,0,1-.073-.578.9.9,0,0,1,.056-.179,11.655,11.655,0,0,1,.664-1.595,7.768,7.768,0,0,1,1-1.528,5.2,5.2,0,0,1,1.316-1.138,3.134,3.134,0,0,1,1.654-.447,3.245,3.245,0,0,1,1.423.3,3.658,3.658,0,0,1,1.1.817,5.271,5.271,0,0,1,.815,1.166,8.922,8.922,0,0,1,.578,1.378q.238.72.4,1.44t.274,1.348q.381,2.086.569,4.176T378.154,88.3Zm-6.8-9.641a10.624,10.624,0,0,0-.55,1.764,18.365,18.365,0,0,0-.321,1.936q-.115.987-.153,1.966c-.026.65-.037,1.269-.037,1.85,0,.215.008.566.026,1.052s.055,1.051.1,1.69.115,1.331.192,2.078.164,1.5.265,2.249.218,1.473.351,2.163a15.944,15.944,0,0,0,.455,1.831,5.8,5.8,0,0,0,.56,1.28.835.835,0,0,0,.666.485.631.631,0,0,0,.464-.246,2.754,2.754,0,0,0,.388-.589,5.753,5.753,0,0,0,.295-.683c.081-.228.14-.405.179-.532a20.159,20.159,0,0,0,.8-3.633,30.054,30.054,0,0,0,.227-3.73q0-1.405-.067-2.969t-.237-3.131q-.168-1.567-.474-3.085a20.533,20.533,0,0,0-.778-2.846c-.1-.29-.215-.581-.341-.873a2.262,2.262,0,0,0-.533-.759,4.557,4.557,0,0,0-.265.436c-.151.265-.313.556-.483.873s-.33.617-.474.9S371.383,78.6,371.358,78.659Z" transform="translate(-345.504 -73.459)" fill="#b7d1e6"/>
      <path id="Path_357" data-name="Path 357" d="M380.89,99.644a.575.575,0,0,1-.3.578,1.59,1.59,0,0,1-.684.143,3.67,3.67,0,0,1-.683-.076,3.628,3.628,0,0,1-.683-.19,1.373,1.373,0,0,1-.55-.4,1.323,1.323,0,0,1-.237-.513,2.586,2.586,0,0,1-.065-.6c0-.209-.006-.427-.022-.655q-.337-5.845-.549-11.614t-.209-11.614a1.342,1.342,0,0,1,.114-.608c.076-.151.265-.226.569-.226a2.539,2.539,0,0,1,1.054.245,1.49,1.49,0,0,1,.767.74,1.459,1.459,0,0,1,.1.513c.02.24.034.493.048.759s.02.528.02.787,0,.46.017.6q.154,4.9.341,9.754t.683,9.754c.039.443.094.881.162,1.308A8.158,8.158,0,0,1,380.89,99.644Z" transform="translate(-340.306 -73.227)" fill="#b7d1e6"/>
      <path id="Path_358" data-name="Path 358" d="M392.329,88.3c0,.43-.008.946-.017,1.548s-.042,1.249-.087,1.945-.114,1.411-.209,2.143a21.932,21.932,0,0,1-.387,2.163A14.449,14.449,0,0,1,391,98.111a7.156,7.156,0,0,1-.921,1.66,4.269,4.269,0,0,1-1.262,1.13,3.513,3.513,0,0,1-3.227.047,4.018,4.018,0,0,1-1.186-.977,6.334,6.334,0,0,1-.864-1.386,10.673,10.673,0,0,1-.6-1.613,16.263,16.263,0,0,1-.39-1.66c-.1-.55-.184-1.054-.248-1.509-.176-1.2-.312-2.4-.4-3.605s-.132-2.416-.132-3.644.05-2.457.151-3.691a18.891,18.891,0,0,1,.647-3.6c-.076-.114-.145-.228-.207-.343a.725.725,0,0,1-.1-.379.943.943,0,0,1,.019-.2,1.025,1.025,0,0,1,.056-.179,11.677,11.677,0,0,1,.666-1.595,7.834,7.834,0,0,1,1-1.528,5.238,5.238,0,0,1,1.319-1.138,3.121,3.121,0,0,1,1.652-.447,3.25,3.25,0,0,1,1.423.3,3.7,3.7,0,0,1,1.1.817,5.319,5.319,0,0,1,.814,1.166,9.07,9.07,0,0,1,.58,1.378q.239.72.4,1.44t.276,1.348q.379,2.086.567,4.176T392.329,88.3Zm-6.793-9.641a10.194,10.194,0,0,0-.55,1.764c-.139.633-.246,1.28-.324,1.936s-.126,1.312-.151,1.966-.037,1.269-.037,1.85c0,.215.008.566.03,1.052s.053,1.051.1,1.69.112,1.331.189,2.078.164,1.5.265,2.249.22,1.473.351,2.163a15.918,15.918,0,0,0,.457,1.831,5.587,5.587,0,0,0,.56,1.28.835.835,0,0,0,.664.485.631.631,0,0,0,.466-.246,2.823,2.823,0,0,0,.39-.589,6.616,6.616,0,0,0,.293-.683c.083-.228.142-.405.182-.532a20.4,20.4,0,0,0,.793-3.633,30.011,30.011,0,0,0,.229-3.73q0-1.405-.067-2.969t-.237-3.131q-.171-1.567-.472-3.085a20.962,20.962,0,0,0-.779-2.846c-.1-.29-.217-.581-.341-.873a2.264,2.264,0,0,0-.533-.759,4.34,4.34,0,0,0-.267.436c-.15.265-.312.556-.483.873s-.327.617-.474.9S385.562,78.6,385.536,78.659Z" transform="translate(-337.584 -73.459)" fill="#b7d1e6"/>
      <path id="Path_359" data-name="Path 359" d="M395.067,99.644a.573.573,0,0,1-.3.578,1.6,1.6,0,0,1-.684.143,4.38,4.38,0,0,1-1.367-.267,1.227,1.227,0,0,1-.787-.91,2.578,2.578,0,0,1-.065-.6c0-.209-.006-.427-.02-.655q-.341-5.845-.55-11.614t-.207-11.614a1.365,1.365,0,0,1,.112-.608c.078-.151.268-.226.57-.226a2.544,2.544,0,0,1,1.054.245,1.5,1.5,0,0,1,.768.74,1.575,1.575,0,0,1,.1.513c.017.24.036.493.048.759s.017.528.017.787,0,.46.019.6q.152,4.9.343,9.754t.681,9.754c.041.443.094.881.162,1.308A8.336,8.336,0,0,1,395.067,99.644Z" transform="translate(-332.386 -73.227)" fill="#b7d1e6"/>
      <path id="Path_360" data-name="Path 360" d="M400.3,99.644a.578.578,0,0,1-.3.578,1.6,1.6,0,0,1-.684.143,3.728,3.728,0,0,1-.686-.076,3.679,3.679,0,0,1-.681-.19,1.4,1.4,0,0,1-.55-.4,1.366,1.366,0,0,1-.237-.513,2.58,2.58,0,0,1-.065-.6c0-.209-.009-.427-.02-.655q-.341-5.845-.549-11.614t-.209-11.614a1.365,1.365,0,0,1,.112-.608c.075-.151.267-.226.571-.226a2.515,2.515,0,0,1,1.051.245,1.345,1.345,0,0,1,.874,1.253c.02.24.034.493.047.759s.02.528.02.787.006.46.019.6q.15,4.9.341,9.754t.684,9.754c.036.443.09.881.16,1.308A8.151,8.151,0,0,1,400.3,99.644Z" transform="translate(-329.459 -73.227)" fill="#b7d1e6"/>
    </g>
    <g id="Group_9303" data-name="Group 9303" transform="translate(406.646 1215)">
      <path id="Path_361" data-name="Path 361" d="M264.708,44.388a21.91,21.91,0,0,0-13.946-6.758c-5.636-.313-10.936,2.843-14.8,6.758-4.55,4.612-4.723,11.676-2.254,17.323,1.512,3.46,4.238,6.135,6.651,8.959,3.6,4.208,4.173,8.677,3.294,13.992-.39,2.344-.742,4.718.892,6.651.394,3.41,2.349,6.408,6.25,5.982,2.827-.31,5.773-3.577,5.825-6.593,1.116-1.811.793-3.937.444-6.04-.881-5.315-.31-9.784,3.284-13.992,2.414-2.824,5.128-5.5,6.642-8.959C269.457,56.064,269.255,49,264.708,44.388ZM251.079,95.367c-2.583.931-4.026-.887-4.869-2.944a6.938,6.938,0,0,0,4.152.067,7.067,7.067,0,0,0,3.573.106A4.728,4.728,0,0,1,251.079,95.367Zm-.36-9.467c-.075,1.358-.43,3.961.935,4.855a.914.914,0,0,0,.094.05c-.031,0-.062.009-.092.014a.61.61,0,0,0-.388-.064,6.265,6.265,0,0,1-.9.1c-.143-.006-.285-.017-.426-.031.55-7.825-.265-15.755-.817-23.557a38.664,38.664,0,0,0-.72-5.407c.681.056,1.485.1,2.352.12.087,2.079.295,4.065.214,5.438C250.606,73.575,251.055,79.738,250.719,85.9Zm13.509-23.292c-3.1,5.326-8.563,8.761-9.6,15.218-.5,3.078.365,5.936.591,8.966.1,1.334.154,3.188-1.5,3.64-.228.064-.469.118-.712.168a1.345,1.345,0,0,0-.1-.38.911.911,0,0,0-.352-.99,19.587,19.587,0,0,1,.217-3.329c.12-1.361.3-2.717.394-4.081.343-5.091-.279-10.236.019-15.345.062-1.049-.136-2.748-.234-4.54,3.538-.229,7.243-1.306,7.67-4.84.443-3.666-4.19-5.557-7.051-4.06-2.218,1.16-2.784,3.925-2.84,6.85a27.314,27.314,0,0,1-2.9-.212,15.85,15.85,0,0,0-3.124-5.758,3.254,3.254,0,0,0-5.6,3.1c.77,2.74,4.031,3.992,6.891,4.526,1.124,4.291,1.11,8.828,1.548,13.221.53,5.3.3,10.624.669,15.925-.411-.072-.818-.156-1.2-.26-1.655-.452-1.6-2.305-1.5-3.64.226-3.03,1.086-5.887.592-8.966-1.038-6.456-6.5-9.891-9.6-15.218-3.142-5.39-3.385-11.955.92-16.818,4.749-5.365,13.232-6.568,19.682-3.989a16.042,16.042,0,0,1,6.208,3.989C267.612,50.653,267.37,57.218,264.228,62.608ZM252.9,59.85c.045-2.41.525-4.6,2.332-5.2,1.646-.549,4.16,1.287,2.832,3C256.838,59.227,254.843,59.718,252.9,59.85Zm-7.683-.719a8.753,8.753,0,0,1-3.414-1.783,1.625,1.625,0,0,1,.185-2.438c.31-.238,1.188.842,1.342,1.015A10.879,10.879,0,0,1,245.213,59.132Z" transform="translate(-211.703 -19.294)" fill="#b7d1e6"/>
      <path id="Path_362" data-name="Path 362" d="M231.662,57.591a14.144,14.144,0,0,0-5.68,3.356.592.592,0,0,0,.714.926c1.8-1.161,4.346-1.671,5.449-3.652A.432.432,0,0,0,231.662,57.591Z" transform="translate(-215.234 -8.138)" fill="#b7d1e6"/>
      <path id="Path_363" data-name="Path 363" d="M227.672,48.873c-1.055-.34-2.372.159-3.449.248-1.481.123-2.965.2-4.45.268a.777.777,0,0,0,0,1.552c2.025.123,7.168,1.359,8.283-1.124A.655.655,0,0,0,227.672,48.873Z" transform="translate(-219.023 -13.066)" fill="#b7d1e6"/>
      <path id="Path_364" data-name="Path 364" d="M228.672,41.957c-.394-1.535-2.776-2.569-4.009-3.287-.923-.539-2.965-1.616-3.875-.552-.365.426-.031,1.256.6,1.029-.249.09-.307-.036.087.159a4.621,4.621,0,0,1,.684.449c.675.491,1.393.932,2.086,1.4.952.644,2.344,2.031,3.6,1.889A.871.871,0,0,0,228.672,41.957Z" transform="translate(-218.122 -19.262)" fill="#b7d1e6"/>
      <path id="Path_365" data-name="Path 365" d="M234.694,30.653a8.33,8.33,0,0,0-1.44-2.706,1.586,1.586,0,0,0-.407-.245c-.008,0-.143-.008-.143-.011v0c0-.111-.327-.111-.627.025-.256.117-.307.421-.326.681-.087,1.258.8,2.739,1.047,3.964.4,1.976.756,4.592,2.723,5.616a.63.63,0,0,0,.937-.532C236.433,35.236,235.341,32.767,234.694,30.653Z" transform="translate(-211.916 -24.878)" fill="#b7d1e6"/>
      <path id="Path_366" data-name="Path 366" d="M248.012,30.509a6.556,6.556,0,0,0-1.135-4.4c-.507-.641-1.528.053-1.319.768a13.059,13.059,0,0,1,.079,4.54c-.094,1.174-.536,2.873.642,3.619a.742.742,0,0,0,.75,0C248.325,34.271,247.982,31.8,248.012,30.509Z" transform="translate(-204.243 -25.859)" fill="#b7d1e6"/>
      <path id="Path_367" data-name="Path 367" d="M264.439,31.582c-1.175-1.035-2.969.454-3.914,1.174a20.358,20.358,0,0,0-3.75,3.892c-.63.834.758,1.881,1.443,1.111a23.186,23.186,0,0,1,4.06-3.465C262.793,33.931,265.559,32.569,264.439,31.582Z" transform="translate(-198.021 -22.859)" fill="#b7d1e6"/>
      <path id="Path_368" data-name="Path 368" d="M270.719,45.879c-1.835-2.913-6.663-.708-9.36-1.038-.839-.1-.96,1.213-.193,1.432a16.774,16.774,0,0,0,4.413.519,43.1,43.1,0,0,0,4.517.173A.73.73,0,0,0,270.719,45.879Z" transform="translate(-195.764 -15.528)" fill="#b7d1e6"/>
      <path id="Path_369" data-name="Path 369" d="M263.884,60.685c-.479-.937-1.811-1.619-2.672-2.2a6.741,6.741,0,0,0-3.5-1.13c-.89-.048-1.016,1.269-.2,1.512a7.755,7.755,0,0,1,2.756,1.778c.742.642,1.78,1.559,2.823,1.428A.94.94,0,0,0,263.884,60.685Z" transform="translate(-197.826 -8.261)" fill="#b7d1e6"/>
    </g>
    <g id="Group_9305" data-name="Group 9305" transform="translate(408.73 1316.621)">
      <path id="Path_370" data-name="Path 370" d="M308.87,91.055H230.061c-5.141,0-9.7,4.79-9.7,9.93V161.8c0,5.141,4.561,8.749,9.7,8.749h22.875l-5.5,16.136L267.6,170.548H308.87c5.142,0,9.687-3.608,9.687-8.749V100.985C318.558,95.845,314.013,91.055,308.87,91.055Z" transform="translate(-220.36 -91.055)" fill="#6daecd"/>
      <path id="Path_371" data-name="Path 371" d="M290.473,131.346v-12.47H283.52a24.378,24.378,0,0,0-1.99-4.67l5.267-5.3-8.7-8.721-5.038,5.348a22.163,22.163,0,0,0-4.4-1.913V97.055H257.74v6.667a14.1,14.1,0,0,0-5.8,2.04l-5.6-5.086-8.955,8.7,5.049,5.666a31.08,31.08,0,0,0-2.081,5.392h-6v10.911h6.208a27.852,27.852,0,0,0,2.121,5.038l-5.038,5.142,8.7,8.757,5.887-5.209a31.7,31.7,0,0,0,5.5,1.908v7.745h10.911v-8.055a24.858,24.858,0,0,0,4.695-2.068l5.239,5.219,8.713-8.7-5.407-5.262a22.788,22.788,0,0,0,1.836-4.511Zm-42.908-6.1a14.479,14.479,0,1,1,14.48,14.479A14.495,14.495,0,0,1,247.565,125.25Z" transform="translate(-212.538 -87.703)" fill="#fff"/>
    </g>
    <g id="Group_9308" data-name="Group 9308" transform="translate(148.428 1416.884)">
      <path id="Path_372" data-name="Path 372" d="M62.319,104.055h78.809c5.141,0,10.429,3.389,10.429,8.529V173.4c0,5.141-5.289,8.592-10.429,8.592H118.255l5.5,16.136L103.586,181.99H62.319c-5.141,0-8.959-3.451-8.959-8.592V112.584C53.36,107.444,57.179,104.055,62.319,104.055Z" transform="translate(-53.36 -104.055)" fill="#feb633"/>
      <g id="Group_9307" data-name="Group 9307" transform="translate(16.678 28.865)">
        <g id="Group_9306" data-name="Group 9306">
          <path id="Path_373" data-name="Path 373" d="M68.523,142.162H64.06V122.574h4.463v7.812H74.84v-7.812H79.3v19.588H74.84V134.3H68.523Z" transform="translate(-64.06 -122.574)" fill="#fff"/>
          <path id="Path_374" data-name="Path 374" d="M74.523,122.574H88.294v3.917H83.641v15.671H79.179V126.491H74.523Z" transform="translate(-58.214 -122.574)" fill="#fff"/>
          <path id="Path_375" data-name="Path 375" d="M100.414,130.551H100.3l-4.014,11.491H93.623l-4.011-11.491h-.118l-.926,11.611H84.1l1.757-19.588H90.61l4.343,11.3,4.347-11.3h4.748l1.757,19.588H101.34Z" transform="translate(-52.862 -122.574)" fill="#fff"/>
          <path id="Path_376" data-name="Path 376" d="M104.026,138.245h6.743v3.917H99.562V122.574h4.464Z" transform="translate(-44.225 -122.574)" fill="#fff"/>
        </g>
      </g>
    </g>
    <g id="Group_9311" data-name="Group 9311" transform="translate(260.654 1263.626)">
      <path id="Path_377" data-name="Path 377" d="M134.591,57.055H213.4c5.142,0,10.158,4.567,10.158,9.709v60.814c0,5.141-5.016,7.412-10.158,7.412H190.524l5.5,16.134L175.857,134.99H134.591c-5.141,0-9.231-2.271-9.231-7.412V66.764C125.36,61.622,129.45,57.055,134.591,57.055Z" transform="translate(-125.36 -57.055)" fill="#cdcc4a"/>
      <g id="Group_9310" data-name="Group 9310" transform="translate(15.11 26.627)">
        <g id="Group_9309" data-name="Group 9309">
          <path id="Path_378" data-name="Path 378" d="M155.206,93.69l2.527,5.053s-2.905,2.4-8.56,2.4c-7.36,0-14.119-6-14.119-13.456,0-7.486,6.729-13.551,14.119-13.551,5.655,0,8.56,2.4,8.56,2.4l-2.527,5.053a9.049,9.049,0,0,0-5.117-1.61c-5.97,0-8.593,4.171-8.593,7.644,0,3.507,2.623,7.677,8.593,7.677A9.043,9.043,0,0,0,155.206,93.69Z" transform="translate(-135.054 -74.138)" fill="#fff"/>
          <path id="Path_379" data-name="Path 379" d="M169.677,76.6l-2.4,4.738a10.748,10.748,0,0,0-5.276-1.8c-2.022,0-3.1.917-3.1,2.338,0,1.453,2.464,2.5,5.434,3.76,2.907,1.231,6.1,3.7,6.1,7.108,0,6.222-4.737,8.4-9.823,8.4a15.226,15.226,0,0,1-9.793-3.443l2.971-4.991s3.473,2.938,6.38,2.938c1.3,0,3.76-.128,3.76-2.558,0-1.9-2.779-2.75-5.876-4.3-3.127-1.548-4.96-3.979-4.96-6.7,0-4.865,4.3-7.96,8.5-7.96A14.814,14.814,0,0,1,169.677,76.6Z" transform="translate(-126.247 -74.138)" fill="#fff"/>
          <path id="Path_380" data-name="Path 380" d="M183.394,76.6l-2.4,4.738a10.748,10.748,0,0,0-5.276-1.8c-2.02,0-3.094.917-3.094,2.338,0,1.453,2.463,2.5,5.434,3.76,2.905,1.231,6.1,3.7,6.1,7.108,0,6.222-4.738,8.4-9.824,8.4a15.224,15.224,0,0,1-9.792-3.443l2.969-4.991s3.473,2.938,6.381,2.938c1.294,0,3.758-.128,3.758-2.558,0-1.9-2.779-2.75-5.875-4.3-3.128-1.548-4.96-3.979-4.96-6.7,0-4.865,4.3-7.96,8.5-7.96A14.814,14.814,0,0,1,183.394,76.6Z" transform="translate(-118.582 -74.138)" fill="#fff"/>
        </g>
      </g>
    </g>
    <g id="Group_9317" data-name="Group 9317" transform="translate(145.311 1596.639)">
      <path id="Path_385" data-name="Path 385" d="M60.068,367.89h78.811c5.141,0,10.679-4.891,10.679-10.032V297.043c0-5.141-5.538-10.2-10.679-10.2H116l5.5-16.134-20.168,16.134H60.068c-5.141,0-8.708,5.064-8.708,10.2v60.815C51.36,363,54.928,367.89,60.068,367.89Z" transform="translate(-51.36 -270.704)" fill="#d1d4fc"/>
      <g id="Group_9316" data-name="Group 9316" transform="translate(25.726 40.947)">
        <g id="Group_9315" data-name="Group 9315">
          <path id="Path_386" data-name="Path 386" d="M85.045,319.943c0,6.186-3.512,9.471-9.812,9.471a10.9,10.9,0,0,1-7.368-3.018l2.29-5.995s2.254,2.138,4.087,2.138c2.061,0,3.626-1.258,3.626-4.428v-20.77h7.178Z" transform="translate(-67.865 -296.768)" fill="#fff"/>
          <path id="Path_387" data-name="Path 387" d="M103.59,299.953l-2.9,5.727a13,13,0,0,0-6.375-2.176c-2.446,0-3.742,1.108-3.742,2.826,0,1.757,2.979,3.016,6.567,4.542,3.512,1.489,7.368,4.467,7.368,8.591,0,7.521-5.727,10.156-11.873,10.156A18.41,18.41,0,0,1,80.8,325.458l3.591-6.035s4.2,3.552,7.709,3.552c1.566,0,4.545-.153,4.545-3.091,0-2.291-3.361-3.322-7.1-5.2-3.78-1.869-5.993-4.81-5.993-8.091,0-5.881,5.192-9.623,10.27-9.623A17.91,17.91,0,0,1,103.59,299.953Z" transform="translate(-60.641 -296.974)" fill="#fff"/>
        </g>
      </g>
    </g>
  </g>
</svg>
