<svg xmlns="http://www.w3.org/2000/svg" width="708" height="473.259" viewBox="0 0 708 473.259">
  <g id="Group_55" data-name="Group 55" transform="translate(-943.606 -1757.595)">
    <path id="Path_54" data-name="Path 54" d="M974.742,2230.011s64.319-271.343,136.258-294.172,90.642,25.75,124.8,22.622,148.762-98.857,189.7-136.839c69.723-64.686,265.388-102.2,224.574-3.874-34.169,82.318-155.828,212.555-137.994,248.3,3.469,6.952,77.575-40.519,97.572-34.327,89.651,27.762-30.177,198.556-30.177,198.556Z" transform="translate(-19.136)" fill="#fff6e7"/>
    <path id="Path_55" data-name="Path 55" d="M2504.707,1921.837h-68.551v-24.689h18.063a.578.578,0,1,0,0-1.156H2412.26v-23.248h63.155a.578.578,0,0,0,0-1.156H2354.388a.578.578,0,0,0,0,1.156H2367.3v23.248h-34.1a.578.578,0,1,0,0,1.156h60.955v24.689h-10.467a.578.578,0,0,0,0,1.156h121.028a.578.578,0,0,0,0-1.156Zm-136.255-25.845v-23.248H2411.1v23.248ZM2435,1921.837h-39.7v-24.689H2435Z" transform="translate(-853.678 -70.059)" fill="#fff"/>
    <path id="Path_56" data-name="Path 56" d="M1103.172,2736.969h-34.1V2713.72h12.907a.578.578,0,1,0,0-1.156h-79.594a.578.578,0,1,0,0,1.156H1024.1v23.249H982.146a.578.578,0,0,0,0,1.156h18.062v24.689H981.184a.578.578,0,0,0,0,1.156h71.5a.578.578,0,0,0,0-1.156h-10.468v-24.689h60.955a.578.578,0,0,0,0-1.156Zm-62.112,25.845h-39.7v-24.689h39.7Zm-15.8-25.845V2713.72h42.653v23.249Z" transform="translate(-22.74 -586.921)" fill="#fff"/>
    <g id="Group_46" data-name="Group 46" transform="translate(1245.731 1828.427)">
      <path id="Path_57" data-name="Path 57" d="M1977.775,2913.865l-.022,12.106h-16.772l-1.4-11.486Z" transform="translate(-1870.146 -2539.066)" fill="#fff"/>
      <path id="Path_58" data-name="Path 58" d="M1977.255,2925.563H1959.3l-1.548-12.716,19.525-.665Zm-16.843-1.254H1976l.02-10.83-16.859.575Z" transform="translate(-1869.023 -2538.031)" fill="#0e2549"/>
      <path id="Path_59" data-name="Path 59" d="M1979.793,2943.378s24.24,7.694,25.075,14.034H1961.4v-14.034Z" transform="translate(-1871.266 -2557.205)" fill="#a1c5e2"/>
      <path id="Path_60" data-name="Path 60" d="M1802.624,2914.129l-.458,12.247h-16.772l-.795-12.51Z" transform="translate(-1762.603 -2539.066)" fill="#fff"/>
      <path id="Path_61" data-name="Path 61" d="M1801.7,2925.987H1783.74l-.875-13.775,19.344.283Zm-16.787-1.254H1800.5l.412-11-16.705-.244Z" transform="translate(-1761.536 -2538.05)" fill="#0e2549"/>
      <path id="Path_62" data-name="Path 62" d="M1803.243,2944.428s24.239,7.694,25.075,14.034h-43.464v-14.034Z" transform="translate(-1762.759 -2557.85)" fill="#a1c5e2"/>
      <path id="Path_63" data-name="Path 63" d="M1828.091,2973.758v3.646h-46.18v-4.168Z" transform="translate(-1760.95 -2575.555)" fill="#0e2549"/>
      <path id="Path_64" data-name="Path 64" d="M1957.881,2972.467v3.886h46.18v-4.168Z" transform="translate(-1869.101 -2574.91)" fill="#0e2549"/>
      <path id="Path_65" data-name="Path 65" d="M1799.6,2579.143h-26.693l-2.276-213.953,76.944,13.288,18.312,200.665h-25.7l-26.9-133.321,3.079-29.234Z" transform="translate(-1754.019 -2201.853)" fill="#6d5a37"/>
      <path id="Path_66" data-name="Path 66" d="M1797.7,2625.167h-.014a.626.626,0,0,1-.613-.64l3.942-177.2a.635.635,0,0,1,.641-.613.626.626,0,0,1,.613.64l-3.941,177.2A.627.627,0,0,1,1797.7,2625.167Z" transform="translate(-1770.267 -2251.956)" fill="#a1c5e2"/>
      <path id="Path_67" data-name="Path 67" d="M1913.275,2616.082l-27.366-155.525a.622.622,0,0,0-.3-.428l1.489-8.786.009-.052v-17.536a.627.627,0,0,0-1.254,0v17.43l-6.149,36.287a.627.627,0,0,0,.513.723.7.7,0,0,0,.105.009.627.627,0,0,0,.617-.522l4.153-24.51,26.945,153.129a.627.627,0,0,0,.617.518.645.645,0,0,0,.109-.009A.626.626,0,0,0,1913.275,2616.082Z" transform="translate(-1821.049 -2243.607)" fill="#a1c5e2"/>
      <path id="Path_68" data-name="Path 68" d="M1866.461,2434.755s-.257,17.713-3.34,18.291h-29.484c-.964-.929-2.505-6.22,6.745-6.413s12,0,12,0l-.439-11.878Z" transform="translate(-1792.288 -2244.607)" fill="#fff"/>
      <path id="Path_69" data-name="Path 69" d="M1862.318,2452.726h-29.75l-.156-.15a3.957,3.957,0,0,1-.64-3.933c.584-1.491,2.4-3.293,7.747-3.4,6.962-.145,10.233-.074,11.454-.028l-.438-11.851h15.62l-.008.545c-.062,4.258-.517,18.2-3.779,18.811Zm-29.282-1.075h29.173c1.581-.436,2.693-9.126,2.853-17.216h-13.413l.44,11.918-.6-.042c-.028,0-2.855-.188-11.952,0-4.753.1-6.3,1.535-6.769,2.721A3.028,3.028,0,0,0,1833.036,2451.651Z" transform="translate(-1791.435 -2243.75)" fill="#0e2549"/>
      <path id="Path_70" data-name="Path 70" d="M1923.464,2057.519s-7.117,19.171-6.123,21.767,1.158,12.611,1.158,12.611l-19.314,37.13-31.682-11.812,6.766-33.853s18.067-8.135,19.624-10.38c2.155-3.106,7.052-21.465,7.052-21.465Z" transform="translate(-1813.555 -2009.07)" fill="#fff"/>
      <path id="Path_71" data-name="Path 71" d="M1898.382,2128.819l-32.649-12.173,6.925-34.649.279-.126c7.2-3.243,18.306-8.629,19.38-10.177,2.072-2.987,6.918-21.1,6.967-21.28a.594.594,0,0,1,1.148.306c-.2.754-4.95,18.5-7.139,21.651-1.543,2.224-16.761,9.178-19.59,10.457l-6.606,33.057,30.716,11.452,19-36.529c-.026-1.253-.235-9.959-1.116-12.259-1.022-2.669,4.919-18.95,6.121-22.186a.594.594,0,1,1,1.114.414c-2.721,7.331-6.79,19.609-6.125,21.347,1.02,2.662,1.191,12.4,1.2,12.814l0,.15-.069.134Z" transform="translate(-1812.467 -2008.122)" fill="#0e2549"/>
      <path id="Path_72" data-name="Path 72" d="M1980.176,1954.091c3.854,1.763,13.27,5.925,10.877,13.074-2.729,8.154-7.614,18.177-10.281,23.424a4.68,4.68,0,0,1-5.657,2.321l-24.62-8.24a4.682,4.682,0,0,1-3.09-5.416c1.667-7.848,5.335-24.417,7.039-26.531C1960.242,1945.533,1974.074,1951.3,1980.176,1954.091Z" transform="translate(-1862.598 -1946.218)" fill="#0e2549"/>
      <path id="Path_73" data-name="Path 73" d="M1955.469,1999.439c-.867-1.826.429-7.469,2.364-13.753a.546.546,0,0,0-.107-.517c-1.294-1.5-2.943-4.347-1.841-7.417.955-2.659,2.7-1.45,3.937-.078a.433.433,0,0,0,.73-.166c2.636-7.477,5.255-13.929,5.255-13.929l29.256,9.791s-2.3,6.685-5.1,14.107c-.126.333-7.355,17.852-8.6,19.239a5.281,5.281,0,0,1-2.842,1.512s-2.391.907-13.024-2.652Z" transform="translate(-1867.449 -1955.024)" fill="#fff"/>
      <path id="Path_74" data-name="Path 74" d="M1976.537,2007.744c-1.637,0-5.146-.436-12.168-2.786a.6.6,0,0,1,.378-1.132c10.065,3.368,12.617,2.66,12.643,2.653l.061-.017a4.691,4.691,0,0,0,2.53-1.328c1.122-1.249,8.22-18.357,8.487-19.052,2.3-6.094,4.278-11.751,4.893-13.521l-28.151-9.422c-.672,1.68-2.86,7.211-5.036,13.382a1.042,1.042,0,0,1-.783.685,1.01,1.01,0,0,1-.953-.318c-.821-.913-1.562-1.387-2.029-1.292-.428.084-.727.684-.9,1.173-1.1,3.066.845,5.795,1.732,6.826a1.138,1.138,0,0,1,.225,1.081c-2.986,9.693-2.782,12.508-2.4,13.323a.6.6,0,0,1-1.078.512c-.83-1.749-.069-6.38,2.325-14.159-1.032-1.206-3.237-4.352-1.932-7.986.407-1.134,1.011-1.787,1.8-1.941.879-.174,1.872.318,2.955,1.458,2.582-7.3,5.154-13.649,5.18-13.714l.211-.519,30.358,10.16-.2.569c-.023.067-2.336,6.777-5.1,14.123-.063.168-7.335,17.891-8.715,19.427a5.835,5.835,0,0,1-3.128,1.689A4.279,4.279,0,0,1,1976.537,2007.744Z" transform="translate(-1866.51 -1953.838)" fill="#0e2549"/>
      <path id="Path_75" data-name="Path 75" d="M2000.9,2015.078a1.014,1.014,0,0,1-.944-1.384l.232-.594a1.014,1.014,0,0,1,1.888.738l-.232.594A1.014,1.014,0,0,1,2000.9,2015.078Z" transform="translate(-1894.917 -1985.063)" fill="#0e2549"/>
      <path id="Path_76" data-name="Path 76" d="M2032.436,2026.842a1.014,1.014,0,0,1-.959-1.345l.246-.711a1.014,1.014,0,0,1,1.917.663l-.246.711A1.014,1.014,0,0,1,2032.436,2026.842Z" transform="translate(-1914.298 -1992.222)" fill="#0e2549"/>
      <path id="Path_77" data-name="Path 77" d="M1989.74,1998.234a.811.811,0,0,1-.578-1.381c3.081-3.126,8.233-1.454,8.452-1.381a.811.811,0,0,1-.512,1.539h0c-.044-.015-4.416-1.421-6.784.981A.81.81,0,0,1,1989.74,1998.234Z" transform="translate(-1888.182 -1974.311)" fill="#0e2549"/>
      <path id="Path_78" data-name="Path 78" d="M2014.233,2019.465a8.216,8.216,0,0,1-.9-.05.683.683,0,0,1,.151-1.359,3.523,3.523,0,0,0,2.241-.282,42.876,42.876,0,0,0,.669-4.784c.422-3.742.708-6.065,1.117-6.775a1.407,1.407,0,0,1,1.042-.694c2.027-.32,5.667,2.886,6.377,3.532a.683.683,0,1,1-.919,1.012c-3.03-2.752-5.03-3.386-5.31-3.175a41.6,41.6,0,0,0-.948,6.254c-.381,3.382-.563,4.808-.832,5.293C2016.446,2019.295,2015.171,2019.465,2014.233,2019.465Z" transform="translate(-1902.808 -1980.787)" fill="#0e2549"/>
      <path id="Path_79" data-name="Path 79" d="M1991.052,1960.825c3.846,1.042,11.449,1.967,13.176-5.725s-.62-5.475-.62-5.475-2.1,1.149-2.71,1.021.467.692.516-6.145c0,0-5.255-2.9-8.824-.173s-4.658.2-4.989-1.871c-.28-1.757-3.278-.581-4.237.8-1.433,1.436-9.736-2.286-12.7-1.84-4.69.7-6.364,1.1-8.015,6.467-.317,1.031-2,11.534-2,11.534l6.692-9.4S1984.765,1959.122,1991.052,1960.825Z" transform="translate(-1870.806 -1941.381)" fill="#0e2549"/>
      <path id="Path_80" data-name="Path 80" d="M2007.456,2046.9a1.4,1.4,0,0,1-1.987,1.421c-3.606-1.568-6.008-5.442-5.2-4.914.319.207,2.467,1.629,3.96,2.388C2006.263,2046.825,2007.228,2046.328,2007.456,2046.9Z" transform="translate(-1895.057 -2004.055)" fill="#0e2549"/>
      <path id="Path_81" data-name="Path 81" d="M1872.708,2109.082s24.368,8.614,25.329,8.673-15.167,110.375-15.167,110.375l-51.217-16.445Z" transform="translate(-1791.522 -2044.449)" fill="#feb633"/>
      <path id="Path_82" data-name="Path 82" d="M1850.084,2212.406v0Z" transform="translate(-1802.849 -2107.952)" fill="#fff"/>
      <path id="Path_83" data-name="Path 83" d="M1849.094,2302.4a.621.621,0,0,1-.621-.621v-90.36a.621.621,0,0,1,1.242,0v90.36A.621.621,0,0,1,1849.094,2302.4Z" transform="translate(-1801.859 -2106.962)" fill="#0e2549"/>
      <path id="Path_84" data-name="Path 84" d="M2030.569,2198.74c1.838,3.273,41.69-25.973,42.283-28.2,1.358-5.107-1.911-9.838-1.542-11.346.579-2.365,5.486,5.071,6.547,7.232.181.369.47.4.829.2,4.3-2.4,15.667-9.282,16.262-6.887.546,2.2-10.816,7.633-10.727,8.17.236,1.421,1.278,6.624-4.432,8.928-3.688,1.489-13.686,37.016-32.939,33.261S2028.731,2195.466,2030.569,2198.74Z" transform="translate(-1913.192 -2074.965)" fill="#fff"/>
      <path id="Path_85" data-name="Path 85" d="M2048.713,2210.006a15.564,15.564,0,0,1-2.982-.293c-14.256-2.781-17.635-9.471-17.733-11.813-.044-1.031.483-1.293.711-1.358.286-.081.837-.076,1.37.829.964.228,6.443-2.139,21.289-12.563,10.516-7.385,19.291-14.345,19.886-15.456.823-3.135-.2-6.135-.948-8.327a6.2,6.2,0,0,1-.6-2.978,1.093,1.093,0,0,1,.94-.931.884.884,0,0,1,.1-.005c2.112,0,6.192,7.159,6.642,7.968h0c.53-.3,1.167-.66,1.879-1.067,8.112-4.634,12.837-7,14.58-6.26a1.21,1.21,0,0,1,.718.836c.407,1.636-2.463,3.659-8.262,7.056-.942.551-1.99,1.165-2.4,1.465.719,4.585-.918,7.717-4.866,9.31-.782.316-2.487,3.7-4.134,6.976C2069.79,2193.527,2061.5,2210.006,2048.713,2210.006Zm-19.375-11.609a5.71,5.71,0,0,0,.533,1.3c1.031,1.9,4.664,6.552,16.1,8.782,13.555,2.644,22.472-15.068,27.8-25.652,2.408-4.783,3.616-7.1,4.786-7.575,5.094-2.056,4.322-6.624,4.068-8.125l-.02-.12c-.1-.6.259-.811,3.057-2.45,1.646-.964,3.7-2.164,5.3-3.309,2.481-1.774,2.385-2.357,2.384-2.363-.052-.028-.808-.395-5.237,1.75-2.738,1.326-5.908,3.137-8.222,4.46-.716.409-1.357.775-1.89,1.073a1.268,1.268,0,0,1-1.013.155,1.14,1.14,0,0,1-.684-.624c-1.085-2.212-4.265-6.726-5.386-7.287a8.5,8.5,0,0,0,.584,2.2c.757,2.218,1.9,5.57.966,9.083-.452,1.7-13.759,11.445-18.849,15.057-5.631,4-19.154,13.344-23.1,13.842A1.641,1.641,0,0,1,2029.338,2198.4Zm41.909-29.021v0Zm-.3-11.109Z" transform="translate(-1912.193 -2073.967)" fill="#0e2549"/>
      <path id="Path_86" data-name="Path 86" d="M1727.524,2203.777s32.58-100.473,46.236-109.6,18.006-7.638,29.175-7.55,11.33,29.135,7.772,39.038c-4.52,12.58-28.078,90.521-28.078,90.521Z" transform="translate(-1727.524 -2030.558)" fill="#dab179"/>
      <path id="Path_87" data-name="Path 87" d="M1936.473,2238.451s11.584-79.312,16.309-95.389c2.967-10.1,5.751-31.4,11.588-29.546,12.6,3.994,19.846,49,19.846,49l25.26-20.687,15.16,21.609s-24.766,41.24-43.563,41.054c-8.282-.082-18.152-22.585-18.152-22.585l-7.322,60.853Z" transform="translate(-1855.943 -2047.105)" fill="#dab179"/>
      <path id="Path_88" data-name="Path 88" d="M1852.3,2194.078l-2.22,96.379,28.181.389,1.557-103.441Z" transform="translate(-1802.849 -2092.586)" fill="#a1c5e2"/>
      <path id="Path_89" data-name="Path 89" d="M1877.829,2290.454l-29.535-.407,2.236-97.06a.665.665,0,0,1,.689-.659.674.674,0,0,1,.659.689l-2.2,95.7,26.827.37,1.547-102.768a.674.674,0,0,1,.674-.664h.01a.675.675,0,0,1,.664.685Z" transform="translate(-1801.749 -2091.511)" fill="#0e2549"/>
      <path id="Path_90" data-name="Path 90" d="M2003.486,2233.442a.656.656,0,0,1-.087-.006.675.675,0,0,1-.583-.755l3.83-29.708a.674.674,0,1,1,1.337.172l-3.83,29.708A.675.675,0,0,1,2003.486,2233.442Z" transform="translate(-1896.714 -2101.793)" fill="#0e2549"/>
    </g>
    <g id="Group_47" data-name="Group 47" transform="translate(1052.182 1954.113)">
      <path id="Path_91" data-name="Path 91" d="M1312.647,2444.2h-68.84a16.731,16.731,0,0,1-16.731-16.731V2285.979a16.731,16.731,0,0,1,16.731-16.731h54.63a16.732,16.732,0,0,1,16.731,16.731v128.032l14.211,13.456A16.731,16.731,0,0,1,1312.647,2444.2Z" transform="translate(-1226.402 -2268.573)" fill="#a1c5e2"/>
      <path id="Path_92" data-name="Path 92" d="M1311.571,2443.8h-68.84a17.425,17.425,0,0,1-17.406-17.406V2284.9a17.426,17.426,0,0,1,17.406-17.406h54.629a17.426,17.426,0,0,1,17.406,17.406v127.742l14.211,13.456v.29A17.425,17.425,0,0,1,1311.571,2443.8Zm-68.84-174.951a16.075,16.075,0,0,0-16.057,16.057v141.488a16.075,16.075,0,0,0,16.057,16.057h68.84a16.076,16.076,0,0,0,16.055-15.769l-14.208-13.453V2284.9a16.075,16.075,0,0,0-16.057-16.057Z" transform="translate(-1225.326 -2267.497)" fill="#0e2549"/>
      <path id="Path_93" data-name="Path 93" d="M1290.927,2471.981h-.012l-28.707.489c3.821-46.553-7.565-115.911-7.681-116.608a.674.674,0,1,0-1.33.221c.116.7,11.5,70.021,7.656,116.41l-6.12.1a.674.674,0,0,0,.011,1.348h.012l36.181-.617a.674.674,0,0,0-.011-1.348Z" transform="translate(-1242.45 -2321.459)" fill="#0e2549"/>
      <path id="Path_94" data-name="Path 94" d="M1350.789,2810.009h-6.379v-78.923c4.054-.826,7.08-4.044,7.08-7.9h-18.249c0,3.853,3.027,7.071,7.081,7.9v78.923h-6.38a11.471,11.471,0,0,0-11.471,11.471v2.246h39.789v-2.246A11.471,11.471,0,0,0,1350.789,2810.009Z" transform="translate(-1285.031 -2547.564)" fill="#494747"/>
    </g>
    <g id="Group_48" data-name="Group 48" transform="translate(1057.173 1879.894)">
      <path id="Path_95" data-name="Path 95" d="M1688.4,2865.209l11.075,27.733h-19.249l-9.49-17.7Z" transform="translate(-1504.065 -2560.63)" fill="#fff"/>
      <path id="Path_96" data-name="Path 96" d="M1698.983,2891.984h-20.791l-10.043-18.731,19.035-10.812Zm-19.9-1.487h17.707l-10.352-25.922-16.291,9.254Z" transform="translate(-1502.474 -2558.928)" fill="#0e2549"/>
      <path id="Path_97" data-name="Path 97" d="M1714.392,2934.843s27.82,9.422,28.779,17.186h-49.884v-17.186Z" transform="translate(-1517.924 -2603.427)" fill="#feb633"/>
      <path id="Path_98" data-name="Path 98" d="M1521.3,2895.828l-2.252,15.321h-18.218l1.927-16.68Z" transform="translate(-1399.642 -2578.612)" fill="#fff"/>
      <path id="Path_99" data-name="Path 99" d="M1518.362,2910.626h-19.694l2.1-18.217,20.051,1.471Zm-18.026-1.487h16.742l2.043-13.894-17.036-1.25Z" transform="translate(-1398.312 -2577.347)" fill="#0e2549"/>
      <path id="Path_100" data-name="Path 100" d="M1517.188,2935.424s27.82,9.422,28.779,17.186h-49.884v-17.186Z" transform="translate(-1396.723 -2603.784)" fill="#feb633"/>
      <path id="Path_101" data-name="Path 101" d="M1545.707,2971.341v4.464h-53v-5.1Z" transform="translate(-1394.647 -2625.465)" fill="#0e2549"/>
      <path id="Path_102" data-name="Path 102" d="M1689.242,2970.466v4.759h53v-5.1Z" transform="translate(-1515.438 -2625.108)" fill="#0e2549"/>
      <path id="Path_103" data-name="Path 103" d="M1554.608,2944.666a.682.682,0,0,1-.207-1.333l9.618-3.071a.682.682,0,1,1,.415,1.3l-9.617,3.071A.693.693,0,0,1,1554.608,2944.666Z" transform="translate(-1432.273 -2606.738)" fill="#0e2549"/>
      <path id="Path_104" data-name="Path 104" d="M1567.085,2952.633a.682.682,0,0,1-.207-1.333l9.617-3.07a.682.682,0,0,1,.415,1.3l-9.617,3.071A.7.7,0,0,1,1567.085,2952.633Z" transform="translate(-1439.941 -2611.634)" fill="#0e2549"/>
      <path id="Path_105" data-name="Path 105" d="M1584.375,2960.6a.682.682,0,0,1-.207-1.332l9.617-3.071a.682.682,0,0,1,.416,1.3l-9.618,3.071A.7.7,0,0,1,1584.375,2960.6Z" transform="translate(-1450.568 -2616.531)" fill="#0e2549"/>
      <path id="Path_106" data-name="Path 106" d="M1748.263,2941.374a.682.682,0,0,1-.207-1.332l9.617-3.071a.682.682,0,0,1,.415,1.3l-9.617,3.071A.684.684,0,0,1,1748.263,2941.374Z" transform="translate(-1551.293 -2604.715)" fill="#0e2549"/>
      <path id="Path_107" data-name="Path 107" d="M1760.74,2949.341a.682.682,0,0,1-.207-1.333l9.617-3.07a.682.682,0,0,1,.415,1.3l-9.617,3.07A.685.685,0,0,1,1760.74,2949.341Z" transform="translate(-1558.961 -2609.611)" fill="#0e2549"/>
      <path id="Path_108" data-name="Path 108" d="M1778.031,2957.309a.682.682,0,0,1-.207-1.332l9.617-3.071a.682.682,0,1,1,.415,1.3l-9.617,3.071A.691.691,0,0,1,1778.031,2957.309Z" transform="translate(-1569.588 -2614.508)" fill="#0e2549"/>
      <path id="Path_109" data-name="Path 109" d="M1388.45,2561s61.143-2.712,62.684,12.235S1415.2,2693.9,1415.2,2693.9l-29.387-4.174s21.143-77.523,20.227-83.085c-3.622-22-88.124-48.716-88.124-48.716Z" transform="translate(-1287.219 -2371.776)" fill="#494747"/>
      <path id="Path_110" data-name="Path 110" d="M1288.225,2535.639s-7.348,48.244,27.786,51.218c35.479,3,69.52,2.467,77.242,10.045,2.262,2.219,42.079,83.3,42.079,83.3l27.813-10.966s-46.532-100.335-50.1-105.161c-6.43-8.688-11.3-13.376-43.23-16.778C1340.972,2544.229,1288.225,2535.639,1288.225,2535.639Z" transform="translate(-1268.581 -2358.078)" fill="#505050"/>
      <path id="Path_111" data-name="Path 111" d="M1419.347,2192.66s-6.386,18.83-5.227,21.286,9.772,8.279,9.772,8.279l-26.023,40.561-33.358-9.9,5.279-32.975s18.269-8.7,19.765-10.942c2.071-3.1,6.2-21.039,6.2-21.039Z" transform="translate(-1315.86 -2144.38)" fill="#fff"/>
      <path id="Path_112" data-name="Path 112" d="M1397.061,2262.536l-.428-.127-33.858-10.044,5.411-33.8.282-.134c7.006-3.337,18.5-9.2,19.526-10.735,1.988-2.973,6.078-20.664,6.119-20.842a.594.594,0,0,1,1.158.266c-.17.737-4.182,18.084-6.289,21.236-1.483,2.219-16.862,9.645-19.721,11.013l-5.148,32.152,32.43,9.62,25.47-39.7c-1.959-1.349-8.425-5.918-9.5-8.19-1.2-2.545,4.122-18.548,5.2-21.731a.594.594,0,1,1,1.125.382c-2.439,7.192-6.022,19.211-5.252,20.842.894,1.894,7.21,6.446,9.568,8.04l.481.325Z" transform="translate(-1314.792 -2143.432)" fill="#0e2549"/>
      <path id="Path_113" data-name="Path 113" d="M1463.776,2093.425c4.151,1.325,14.278,4.423,12.547,11.523-1.974,8.1-5.977,18.2-8.186,23.5a4.923,4.923,0,0,1-5.589,2.772l-26.207-5.561a4.561,4.561,0,0,1-3.739-4.908c.911-7.7,2.989-23.977,4.527-26.171C1442.363,2087.11,1457.2,2091.327,1463.776,2093.425Z" transform="translate(-1357.689 -2084.391)" fill="#0e2549"/>
      <path id="Path_114" data-name="Path 114" d="M1441.1,2140.3c-1.081-1.672-.325-7.219,1.023-13.444a.506.506,0,0,0-.163-.487c-1.488-1.321-3.479-3.9-2.658-6.951.711-2.647,2.636-1.652,4.047-.452a.459.459,0,0,0,.735-.23c1.947-7.437,3.983-13.889,3.983-13.889l31.142,6.607s-1.684,6.645-3.8,14.046c-.1.332-5.744,17.86-6.884,19.313a5.5,5.5,0,0,1-2.773,1.725s-2.37,1.1-13.689-1.3Z" transform="translate(-1361.705 -2093.313)" fill="#fff"/>
      <path id="Path_115" data-name="Path 115" d="M1462.44,2146.276a58.137,58.137,0,0,1-11.464-1.568.6.6,0,0,1,.248-1.167c10.75,2.281,13.306,1.346,13.33,1.336l.058-.021a4.913,4.913,0,0,0,2.48-1.524c1.013-1.289,6.577-18.416,6.781-19.111,1.727-6.036,3.18-11.625,3.643-13.425l-30-6.366c-.519,1.676-2.206,7.2-3.814,13.344a1.056,1.056,0,0,1-1.7.533c-.963-.819-1.8-1.2-2.287-1.048-.428.133-.67.726-.8,1.2-.812,3.024,1.462,5.448,2.478,6.351a1.108,1.108,0,0,1,.35,1.059c-2.075,9.582-1.583,12.254-1.1,12.994a.6.6,0,0,1-1,.647c-.382-.592-1.545-2.392.929-13.84-1.2-1.074-3.777-3.89-2.8-7.521a2.6,2.6,0,0,1,1.6-2.031c.89-.276,1.979.105,3.243,1.135,1.912-7.276,3.914-13.637,3.934-13.7l.163-.516,32.279,6.849-.153.6c-.017.066-1.71,6.738-3.807,14.063-.048.168-5.722,17.9-6.989,19.518a6.042,6.042,0,0,1-3.039,1.918A7.471,7.471,0,0,1,1462.44,2146.276Z" transform="translate(-1360.748 -2092.202)" fill="#0e2549"/>
      <path id="Path_116" data-name="Path 116" d="M1478.148,2152.315a1.014,1.014,0,0,1-.971-1.306l.178-.593a1.014,1.014,0,1,1,1.942.584l-.178.593A1.014,1.014,0,0,1,1478.148,2152.315Z" transform="translate(-1385.077 -2120.877)" fill="#0e2549"/>
      <path id="Path_117" data-name="Path 117" d="M1515.35,2160.128a1.014,1.014,0,0,1-.983-1.264l.18-.706a1.014,1.014,0,0,1,1.965.5l-.18.707A1.014,1.014,0,0,1,1515.35,2160.128Z" transform="translate(-1407.941 -2125.609)" fill="#0e2549"/>
      <path id="Path_118" data-name="Path 118" d="M1478.861,2140.96a.808.808,0,0,1-.467-.149,7.3,7.3,0,0,0-4.792-1.079.811.811,0,0,1-.236-1.6,8.841,8.841,0,0,1,5.966,1.36.811.811,0,0,1-.471,1.472Z" transform="translate(-1382.336 -2113.716)" fill="#0e2549"/>
      <path id="Path_119" data-name="Path 119" d="M1481.686,2181.706c-.658.574,1.288,3.429,4.235,3.928,4.809.815,7.028-1.917,5.824-1.945a15.77,15.77,0,0,1-5.29,0C1483.361,2183.1,1482.127,2181.322,1481.686,2181.706Z" transform="translate(-1387.796 -2140.519)" fill="#0e2549"/>
      <path id="Path_120" data-name="Path 120" d="M1496.036,2157.96h-.091a.683.683,0,0,1,.008-1.367h.074a3.824,3.824,0,0,0,2.243-.489c.242-.526.257-.557-.253-3.748-.114-.713-.252-1.576-.415-2.628l-.007-.056a8.853,8.853,0,0,1,.491-3.729,2.066,2.066,0,0,1,1.583-.971,10.138,10.138,0,0,1,7.495,1.848.684.684,0,0,1-.908,1.022,8.937,8.937,0,0,0-5.805-1.6,2.047,2.047,0,0,0-1.143.311,7.574,7.574,0,0,0-.352,2.995c.161,1.036.3,1.887.409,2.592.532,3.33.575,3.6.144,4.537C1498.971,2157.85,1496.82,2157.96,1496.036,2157.96Z" transform="translate(-1396.223 -2117.9)" fill="#0e2549"/>
      <path id="Path_121" data-name="Path 121" d="M1450.691,2085.3s-.251-7.856,5.016-6.913,6.155-4.276,11.09-3.354,2.168,2.251,7.225,3.784,7.761-1.2,8.958,2.892,5.259,3.3,6.884,6.123.876,5.948-1.692,6.837,1.156,3.272-1,5.393-10.658,1.38-11.907-2.017-1.882-5.7-5.04-6.055-7.1,1.049-9.211.309-4.9-3.213-6.1-2.687-2.551,2.43-3.7,2.2S1446.683,2087.6,1450.691,2085.3Z" transform="translate(-1367.653 -2074.924)" fill="#0e2549"/>
      <path id="Path_122" data-name="Path 122" d="M1448.208,2096.391s-1.409,3.776-2.939,5.409-3.612,2.678-3.579,5.4-6.493-1.445-4.681-4.26c3.733-5.8-1.9-7.513,1.8-10.389,2.209-1.717,6.087-1.425,6.087-1.425Z" transform="translate(-1360.222 -2084.871)" fill="#0e2549"/>
      <path id="Path_123" data-name="Path 123" d="M1448.208,2096.391s-1.409,3.776-2.939,5.409-3.612,2.678-3.579,5.4-6.493-1.445-4.681-4.26c3.733-5.8-1.9-7.513,1.8-10.389,2.209-1.717,6.087-1.425,6.087-1.425Z" transform="translate(-1360.222 -2084.871)" fill="#0e2549"/>
      <path id="Path_124" data-name="Path 124" d="M1302.253,2240.7c-6.78-3.5-49.548,26.052-61.633,65.011-13.564,43.73,36.152,31.45,36.152,31.45l-7.678-48.791-12.4,70.082,79.706,7.407,8.377-52.069s-3.706,23.035,25.908,23.53c13.043.218,31.5,0,31.5,0l2.129-19.917-33.227-4.727s-3.012-37.552-16.17-51.181c-6.211-6.432-11.32-10.219-14-10.872C1332.852,2248.654,1336.685,2258.458,1302.253,2240.7Z" transform="translate(-1238.276 -2176.635)" fill="#feb633"/>
      <path id="Path_125" data-name="Path 125" d="M1526.192,2468.163l15.792-1.677,5.13,1.337.747,1.9s-8.438-.5-13.423,1.02a23.07,23.07,0,0,1-8.77,1.034l-.271-1.146Z" transform="translate(-1414.739 -2315.576)" fill="#fff"/>
      <path id="Path_126" data-name="Path 126" d="M1461.569,2463.858c-7.01-.6-37.049,3.459-37.049,3.459l2.533-16.226s32.769,5.577,35.247,4.864a73.677,73.677,0,0,1,16.322-2.366c7.275-.284,14.066,1.458,13.957,3.436-.059,1.067-9.857.217-12.368,1.224C1473.123,2461.092,1466.566,2464.287,1461.569,2463.858Z" transform="translate(-1352.741 -2306.114)" fill="#fff"/>
      <path id="Path_127" data-name="Path 127" d="M1421.992,2466.767l2.829-18.123.815.138c12.538,2.134,33.094,5.348,34.886,4.884a74.529,74.529,0,0,1,16.515-2.4c6.265-.244,12.354.96,14.166,2.8a1.948,1.948,0,0,1,.636,1.494c-.072,1.3-1.887,1.334-6.271,1.408-2.46.041-5.522.092-6.606.527-1.136.456-2.258.921-3.363,1.378-5.791,2.4-11.26,4.663-15.653,4.287h0c-6.839-.588-36.571,3.415-36.87,3.455Zm4.186-16.239-2.238,14.333c5.525-.731,29.8-3.858,36.145-3.32h0c4,.345,9.287-1.848,14.889-4.168,1.11-.46,2.238-.927,3.38-1.385,1.364-.547,4.324-.6,7.187-.644,1.51-.025,3.469-.058,4.423-.2-1.421-1.284-6.835-2.48-12.863-2.242a72.8,72.8,0,0,0-16.129,2.334C1458.551,2455.933,1433.157,2451.71,1426.178,2450.528Z" transform="translate(-1351.187 -2304.611)" fill="#0e2549"/>
      <path id="Path_128" data-name="Path 128" d="M1529.985,2469.37l16.358-2.412-.755.246s15.531,2.573-7.337,4.46c-5.244.433-9.485-.062-9.213.479l.152-.3Z" transform="translate(-1416.969 -2315.866)" fill="#fff"/>
      <path id="Path_129" data-name="Path 129" d="M1535.967,2471.947a.816.816,0,0,1-.113-1.623c1.885-.267,3.591-.663,5.1-1.013a23.972,23.972,0,0,1,4.809-.812c1.681-.021,6.685-.082,7.556-.678-.006-.012-.013-.027-.022-.042-.369-.508-3.618-1.753-6.847-1.775a21.714,21.714,0,0,0-7.055,1.241.815.815,0,0,1-.582-1.523,23.4,23.4,0,0,1,7.524-1.35h.125c3.11.022,7.492,1.2,8.269,2.627a1.553,1.553,0,0,1,.056,1.6c-.649,1.106-2.668,1.448-9,1.526a23.048,23.048,0,0,0-4.459.771c-1.538.357-3.281.762-5.237,1.039A.8.8,0,0,1,1535.967,2471.947Z" transform="translate(-1420.735 -2314.276)" fill="#0e2549"/>
      <path id="Path_130" data-name="Path 130" d="M1386.15,2236.247l11.2-5.563,18.329,12.195-7.966,6.341Z" transform="translate(-1329.159 -2170.653)" fill="#feb633"/>
      <path id="Path_131" data-name="Path 131" d="M1484.775,2261.1l-5.285-8.515-16.73,3.752,4.343,8.228Z" transform="translate(-1376.243 -2184.115)" fill="#feb633"/>
      <path id="Path_132" data-name="Path 132" d="M1436.3,2246.715l-6.214-10.01-16.955,3.8-18.432-12.262-12.951,6.435,23.32,14.031,7.063-5.623c-.772,12.73-5.723,90.865-12.068,111.368a.735.735,0,0,0,1.4.435c6.241-20.168,11.12-95.261,12.068-110.692l3.339,6.324Zm-31.362.015-19.8-11.913,9.442-4.692,17,11.313Zm24.374-8.18,4.357,7.019-15.919,3.122-3.562-6.749Z" transform="translate(-1326.455 -2169.154)" fill="#0e2549"/>
      <path id="Path_133" data-name="Path 133" d="M1268.822,2417.236l55.926,10.016-6.514,19.257s-38.732,1.121-47.024,0c-15.436-2.085-31.938-15.683-31.938-15.683Z" transform="translate(-1238.888 -2285.308)" fill="#feb633"/>
      <path id="Path_134" data-name="Path 134" d="M1371.33,2410.368a.761.761,0,0,1-.72-1l5.882-17.391-51.387-8.147,14.614-24.612a.76.76,0,1,1,1.308.776l-13.469,22.685,50.952,8.079-6.46,19.1A.761.761,0,0,1,1371.33,2410.368Z" transform="translate(-1291.641 -2249.418)" fill="#0e2549"/>
    </g>
    <g id="Group_49" data-name="Group 49" transform="translate(1064.629 2036.288)">
      <path id="Path_135" data-name="Path 135" d="M1779.622,2492.625,1318.3,2492a4.638,4.638,0,0,1-4.625-4.625v-.538a4.638,4.638,0,0,1,4.625-4.625l461.325.623a4.638,4.638,0,0,1,4.625,4.625V2488A4.639,4.639,0,0,1,1779.622,2492.625Z" transform="translate(-1292.071 -2481.636)" fill="#ebf4fe"/>
      <path id="Path_136" data-name="Path 136" d="M1778.7,2492.281h0l-461.325-.623a5.209,5.209,0,0,1-5.2-5.2v-.538a5.209,5.209,0,0,1,5.2-5.2l461.326.623a5.209,5.209,0,0,1,5.2,5.2v.538A5.209,5.209,0,0,1,1778.7,2492.281Zm-461.326-10.411a4.051,4.051,0,0,0-4.046,4.046v.538a4.051,4.051,0,0,0,4.047,4.047l461.326.623a4.052,4.052,0,0,0,4.046-4.047v-.538a4.051,4.051,0,0,0-4.047-4.047Z" transform="translate(-1291.149 -2480.714)" fill="#0e2549"/>
      <path id="Path_137" data-name="Path 137" d="M1269.215,2691.35h-9.791l45.135-183.547h9.791Z" transform="translate(-1258.73 -2497.363)" fill="#ebf4fe"/>
      <path id="Path_138" data-name="Path 138" d="M1268.535,2691.027h-10.911l.166-.674,45.237-183.961h10.911l-.166.674Zm-9.524-1.087h8.671l44.867-182.46h-8.67Z" transform="translate(-1257.623 -2496.496)" fill="#0e2549"/>
      <path id="Path_139" data-name="Path 139" d="M2475.367,2692.225h9.791l-27-183h-9.791Z" transform="translate(-1989.45 -2498.238)" fill="#ebf4fe"/>
      <path id="Path_140" data-name="Path 140" d="M2484.76,2691.882H2473.8l-.073-.493-27.1-183.661h10.959l.073.494Zm-9.962-1.156h8.622l-26.828-181.843h-8.623Z" transform="translate(-1988.383 -2497.316)" fill="#0e2549"/>
    </g>
    <g id="Group_50" data-name="Group 50" transform="translate(1177.68 1780.816)">
      <circle id="Ellipse_4" data-name="Ellipse 4" cx="37.262" cy="37.262" r="37.262" transform="translate(0 73.265) rotate(-79.452)" fill="#fff6e7"/>
      <path id="Path_141" data-name="Path 141" d="M1627.755,1904.1l-22.282-10.3a.578.578,0,1,1,.485-1.05l21.7,10.031,25.128-16.278a.578.578,0,0,1,.629.97Z" transform="translate(-1584.254 -1859.984)" fill="#feb633"/>
    </g>
    <g id="Group_51" data-name="Group 51" transform="translate(1181.873 1976.69)">
      <path id="Path_142" data-name="Path 142" d="M1716.406,2327.577l-13.449,54.451h-78.545l15.9-54.451Z" transform="translate(-1600.293 -2326.999)" fill="#ebf4fe"/>
      <path id="Path_143" data-name="Path 143" d="M1702.18,2381.684h-79.768l16.239-55.607h77.264l-.177.717Zm-78.226-1.156h77.321l13.163-53.295h-74.92Z" transform="translate(-1599.064 -2326.077)" fill="#0e2549"/>
      <rect id="Rectangle_29" data-name="Rectangle 29" width="102.015" height="5.146" transform="translate(102.593 60.176) rotate(180)" fill="#a1c5e2"/>
      <path id="Path_144" data-name="Path 144" d="M1665,2473.663H1561.832v-6.3H1665Zm-102.015-1.156h100.859v-3.99H1562.988Z" transform="translate(-1561.832 -2412.909)" fill="#0e2549"/>
      <path id="Path_145" data-name="Path 145" d="M1731.99,2398.787c-.162,0-.324-.007-.488-.021a6.254,6.254,0,0,1-4.635-2.865,9.153,9.153,0,0,1-1.457-5.932c.389-4.529,3.747-7.958,7.5-7.631s6.481,4.267,6.093,8.8C1738.633,2395.466,1735.538,2398.787,1731.99,2398.787Zm.431-15.314c-2.953,0-5.539,2.864-5.859,6.595a8,8,0,0,0,1.261,5.182,5.121,5.121,0,0,0,3.779,2.364c3.108.26,5.917-2.684,6.251-6.578s-1.927-7.279-5.039-7.546C1732.682,2383.479,1732.551,2383.473,1732.421,2383.473Z" transform="translate(-1662.344 -2360.642)" fill="#0e2549"/>
    </g>
    <g id="Group_52" data-name="Group 52" transform="translate(1372.447 1976.488)">
      <path id="Path_146" data-name="Path 146" d="M2073.269,2438.759h0a16.958,16.958,0,0,1-16.958-16.958V2411.51h33.916V2421.8A16.958,16.958,0,0,1,2073.269,2438.759Z" transform="translate(-2056.311 -2378.382)" fill="#feb633"/>
      <path id="Path_147" data-name="Path 147" d="M2133.621,2439.01q-.37,0-.744-.024l.077-1.154a10.012,10.012,0,0,0,9.244-5.059c1.916-3.052,2.448-6.781,1.263-8.869a2.409,2.409,0,0,0-1.756-1.3c-2.356-.4-5.942,2.216-7.123,3.256l-.764-.868c.19-.167,4.7-4.094,8.078-3.529a3.547,3.547,0,0,1,2.571,1.866c1.4,2.475.874,6.609-1.29,10.054A11.215,11.215,0,0,1,2133.621,2439.01Z" transform="translate(-2103.368 -2384.467)" fill="#feb633"/>
      <path id="Path_148" data-name="Path 148" d="M2074.525,2440.45a.5.5,0,0,1-.239-.062c-7.642-4.217-6.72-17.127-6.678-17.675a.5.5,0,0,1,.532-.454.5.5,0,0,1,.455.531c-.011.128-.914,12.823,6.169,16.731a.494.494,0,0,1-.239.927Z" transform="translate(-2063.22 -2384.988)" fill="#fff"/>
      <path id="Path_149" data-name="Path 149" d="M2074.011,2360.844a.578.578,0,0,1-.407-.988c3-2.979,3.864-3.988,3.812-7.385-.047-3.062-1.458-4.36-2.952-5.734a9.224,9.224,0,0,1-2.994-4.12c-1.458-4.58,4.2-8.844,4.446-9.023a.578.578,0,0,1,.689.929c-.053.039-5.24,3.949-4.033,7.743a8.178,8.178,0,0,0,2.674,3.62c1.609,1.479,3.272,3.009,3.326,6.567.059,3.844-1.021,5.115-4.154,8.224A.577.577,0,0,1,2074.011,2360.844Z" transform="translate(-2065.48 -2330.425)" fill="#0e2549"/>
      <path id="Path_150" data-name="Path 150" d="M2113.112,2360.844a.578.578,0,0,1-.407-.988c3-2.979,3.864-3.988,3.812-7.385-.047-3.062-1.458-4.36-2.953-5.734a9.226,9.226,0,0,1-2.994-4.12c-1.458-4.58,4.2-8.844,4.446-9.023a.578.578,0,0,1,.689.929c-.052.039-5.24,3.949-4.033,7.743a8.179,8.179,0,0,0,2.674,3.62c1.609,1.479,3.272,3.009,3.327,6.567.058,3.844-1.022,5.115-4.154,8.224A.576.576,0,0,1,2113.112,2360.844Z" transform="translate(-2089.511 -2330.425)" fill="#0e2549"/>
      <path id="Path_151" data-name="Path 151" d="M2092.209,2352.917a.578.578,0,0,1-.407-.988c3-2.979,3.864-3.988,3.812-7.385-.047-3.062-1.458-4.36-2.953-5.734a9.229,9.229,0,0,1-2.994-4.12c-1.457-4.581,4.2-8.844,4.446-9.022a.578.578,0,0,1,.689.928c-.053.039-5.24,3.95-4.033,7.743a8.183,8.183,0,0,0,2.675,3.62c1.609,1.479,3.272,3.008,3.326,6.567.059,3.844-1.022,5.115-4.154,8.224A.576.576,0,0,1,2092.209,2352.917Z" transform="translate(-2076.664 -2325.553)" fill="#0e2549"/>
    </g>
    <g id="Group_53" data-name="Group 53" transform="translate(1389.405 1850.648)">
      <path id="Path_152" data-name="Path 152" d="M2165.957,2893.445l1.968,19.1h16.719l2.547-20.45Z" transform="translate(-2140.656 -2547.908)" fill="#fff"/>
      <path id="Path_153" data-name="Path 153" d="M2184.1,2912.1h-17.835l-2.092-20.309,22.635-1.437Zm-16.707-1.249h15.6l2.385-19.155-19.832,1.26Z" transform="translate(-2139.559 -2546.837)" fill="#0e2549"/>
      <path id="Path_154" data-name="Path 154" d="M2128.821,2943.268s-24.163,7.669-25,13.989h43.327v-13.989Z" transform="translate(-2102.47 -2579.358)" fill="#feb633"/>
      <path id="Path_155" data-name="Path 155" d="M2299.685,2890.22,2295.7,2911h16.719l3-20.142Z" transform="translate(-2220.394 -2546.755)" fill="#fff"/>
      <path id="Path_156" data-name="Path 156" d="M2311.748,2910.6h-18.014l4.233-22.055,16.961.692Zm-16.5-1.25h15.424l2.817-18.92-14.5-.592Z" transform="translate(-2219.188 -2545.724)" fill="#0e2549"/>
      <path id="Path_157" data-name="Path 157" d="M2253.454,2942.255s-24.163,7.67-25,13.99h43.327v-13.99Z" transform="translate(-2179.069 -2578.735)" fill="#feb633"/>
      <path id="Path_158" data-name="Path 158" d="M2223.187,2973.488v3.7h46.035v-4.234Z" transform="translate(-2175.83 -2597.605)" fill="#0e2549"/>
      <path id="Path_159" data-name="Path 159" d="M2146.346,2972.032v4.395h-46.035v-4.714Z" transform="translate(-2100.311 -2596.84)" fill="#0e2549"/>
      <path id="Path_160" data-name="Path 160" d="M2316.9,2959.229a.573.573,0,0,1-.573-.573v-8.395a.574.574,0,1,1,1.147,0v8.395A.574.574,0,0,1,2316.9,2959.229Z" transform="translate(-2233.075 -2583.303)" fill="#0e2549"/>
      <path id="Path_161" data-name="Path 161" d="M2192.269,2960.242a.574.574,0,0,1-.574-.573v-8.4a.574.574,0,0,1,1.147,0v8.4A.574.574,0,0,1,2192.269,2960.242Z" transform="translate(-2156.475 -2583.926)" fill="#0e2549"/>
      <path id="Path_162" data-name="Path 162" d="M2238.351,2455.022l-40.959,38.565-8.759,102.833-30.4.757s2.083-106.088,5.345-116.032c3.469-10.575,54.452-74.3,54.452-74.3l70.416-8.631s8.795,28.251,3.158,41.913-57.24,158.465-57.24,158.465l-34.172-1.762Z" transform="translate(-2135.913 -2244.373)" fill="#505050"/>
      <path id="Path_163" data-name="Path 163" d="M2366.261,2504.18a.529.529,0,0,1-.513-.663l6.68-25.693a.53.53,0,0,1,1.026.266l-6.68,25.693A.531.531,0,0,1,2366.261,2504.18Z" transform="translate(-2263.437 -2293.054)" fill="#a1c5e2"/>
      <path id="Path_164" data-name="Path 164" d="M2368.959,2175.414l6.43-4.833,6.8,4.019-2.983,5.385,12.128,72.237-8.567,19.724-10.252-18.3.626-73.344Z" transform="translate(-2265.421 -2104.467)" fill="#e2474b"/>
      <path id="Path_165" data-name="Path 165" d="M2349.346,2000.316c3.924-.265,13.447-1.032,14.651,5.844a180.25,180.25,0,0,1,1.952,23.608,4.34,4.34,0,0,1-3.592,4.385l-23.734,4.156a4.341,4.341,0,0,1-4.913-3.045c-2.105-7.125-5.842-22.473-5.385-24.945C2329.883,2001.906,2343.134,2000.735,2349.346,2000.316Z" transform="translate(-2240.424 -1999.721)" fill="#0e2549"/>
      <path id="Path_166" data-name="Path 166" d="M2367.816,2093.565s2.537,18.489,4.533,20.3,11.345,5.088,11.345,5.088l-25.8,23.373-20.538-14.876s8.606-5.719,9.063-8.3c.632-3.567-2.714-21.365-2.714-21.365Z" transform="translate(-2245.996 -2057.134)" fill="#fff"/>
      <path id="Path_167" data-name="Path 167" d="M2356.312,2142.146l-21.6-15.642.7-.462c3.248-2.158,8.512-6.216,8.813-7.915.607-3.423-2.68-20.979-2.713-21.156a.58.58,0,1,1,1.14-.214c.137.731,3.358,17.943,2.715,21.573-.422,2.381-6.452,6.717-8.624,8.211l19.487,14.115,24.736-22.409c-2.433-.885-8.928-3.336-10.628-4.877-2.049-1.857-4.29-17.527-4.718-20.649a.58.58,0,1,1,1.149-.158c.97,7.068,3.008,18.733,4.348,19.948,1.567,1.42,6.165,4.984,8.735,5.885l1.442,1.119Z" transform="translate(-2244.375 -2056.209)" fill="#0e2549"/>
      <path id="Path_168" data-name="Path 168" d="M2353.538,2050.509c-6.594,1.959-15.221,2.158-17.963.234-1.607-1.128-3.1-6.441-4.339-12.585-.036-.178-3.331-22.15-3.331-22.15l30.1-5.272s1.1,6.646,2.117,14.139a.429.429,0,0,0,.7.272c1.431-1.2,3.492-2.334,4.043.439.687,3.456-2.039,6.158-3.5,7.187a.509.509,0,0,0-.213.473c.569,5.31.861,9.937.419,11.67a5.118,5.118,0,0,1-1.778,2.571Z" transform="translate(-2240.189 -2006.227)" fill="#fff"/>
      <path id="Path_169" data-name="Path 169" d="M2341.442,2051.6c-3.1,0-5.8-.439-7.248-1.453-1.543-1.084-3.04-5.318-4.574-12.945-.036-.178-2.562-17.021-3.335-22.179l-.084-.559,31.238-5.47.1.577c.011.066,1.089,6.582,2.083,13.89,1.336-1.067,2.457-1.45,3.332-1.142a2.485,2.485,0,0,1,1.442,2.083c.659,3.315-1.576,6.24-3.7,7.751.68,6.353.811,10.224.4,11.835a5.675,5.675,0,0,1-1.966,2.871.58.58,0,1,1-.748-.886,4.556,4.556,0,0,0,1.59-2.272c.255-1,.387-3.805-.434-11.465a1.088,1.088,0,0,1,.457-1.009c.411-.289,4-2.93,3.266-6.6-.094-.477-.291-1.075-.69-1.216-.486-.171-1.366.232-2.412,1.108a1.009,1.009,0,0,1-1.648-.639c-.831-6.139-1.732-11.769-2.02-13.545l-28.97,5.073c1.146,7.64,3.19,21.257,3.244,21.573,1.9,9.456,3.386,11.712,4.1,12.214,2.507,1.76,10.994,1.606,17.464-.315a.58.58,0,0,1,.331,1.111A41.76,41.76,0,0,1,2341.442,2051.6Z" transform="translate(-2239.141 -2005.156)" fill="#0e2549"/>
      <path id="Path_170" data-name="Path 170" d="M2349.749,2063.656a.85.85,0,0,1-.834-.695l-.131-.7a.85.85,0,0,1,1.671-.31l.131.7a.851.851,0,0,1-.836,1.005Z" transform="translate(-2253.012 -2037.274)" fill="#0e2549"/>
      <path id="Path_171" data-name="Path 171" d="M2384.759,2057.875a.85.85,0,0,1-.838-.711l-.117-.707a.85.85,0,0,1,1.677-.277l.117.707a.849.849,0,0,1-.84.988Z" transform="translate(-2274.538 -2033.72)" fill="#0e2549"/>
      <path id="Path_172" data-name="Path 172" d="M2376.318,2045.76a.51.51,0,0,1-.135-1c.169-.046,4.172-1.125,6.483-.165a.51.51,0,0,1-.392.942c-1.99-.827-5.784.2-5.822.207A.511.511,0,0,1,2376.318,2045.76Z" transform="translate(-2269.631 -2026.792)" fill="#0e2549"/>
      <path id="Path_173" data-name="Path 173" d="M2346.6,2050.468s-2.406-.818-5.662,1.319Z" transform="translate(-2248.2 -2030.552)" fill="#fff"/>
      <path id="Path_174" data-name="Path 174" d="M2340.127,2051.483a.51.51,0,0,1-.28-.936c3.425-2.247,6-1.412,6.106-1.376a.51.51,0,0,1-.325.966c-.092-.029-2.24-.7-5.22,1.262A.512.512,0,0,1,2340.127,2051.483Z" transform="translate(-2247.387 -2029.738)" fill="#0e2549"/>
      <path id="Path_175" data-name="Path 175" d="M2363.318,2067.058h-.025c-.645-.025-2.784-.2-3.242-1.432-.344-.926-.291-1.19.36-4.429.14-.7.309-1.538.511-2.564a.651.651,0,1,1,1.278.251c-.2,1.029-.371,1.872-.511,2.57-.631,3.14-.619,3.173-.416,3.719a3.355,3.355,0,0,0,2.072.584.651.651,0,0,1-.026,1.3Z" transform="translate(-2259.817 -2035.341)" fill="#0e2549"/>
      <path id="Path_176" data-name="Path 176" d="M2365.868,2067.7s-.736,1.044-2.287,3.2c-1.791,2.495-21.971,4.835-23.5,4.371-3.367-1.023-3.045-3.874-4.164-3.436-1.386.543,2.68,14.416,4.52,16.144s16.466-.119,23.976-3.074C2370.652,2082.452,2365.868,2067.7,2365.868,2067.7Z" transform="translate(-2244.94 -2041.236)" fill="#0e2549"/>
      <path id="Path_177" data-name="Path 177" d="M2348.007,2005.1s-21.335,10.428-32.882,4.3,4.545-9.277,14.429-9.99S2353.4,1998.285,2348.007,2005.1Z" transform="translate(-2229.871 -1999.038)" fill="#0e2549"/>
      <path id="Path_178" data-name="Path 178" d="M2202.389,2192.122c8.676.63,48.67-30.854,53.515-30.771.405.007,12.777,1.252,13.061,1.072,2.8-1.768,4.965-1.84,6.6-.571,6.316-1.944,15-5.037,15.4-4.964,17.911,3.272,38.021,53.179,39.169,56.6,4.129,12.32-11.256,18.752-11.256,18.752-.14,1.386,4.826,36.386,4.826,36.386l-56.406,1.852h0l-37.723,1.685s4.265-60.909,3.066-78.582c-.59-8.7-14.465,36.889-26.916,18.839C2190.348,2190.121,2195.909,2191.651,2202.389,2192.122Z" transform="translate(-2159.022 -2096.051)" fill="#fff"/>
      <path id="Path_179" data-name="Path 179" d="M2227.978,2271.841l.046-.662c.042-.609,4.248-61.07,3.066-78.5-.01-.147-.024-.264-.038-.357a43.683,43.683,0,0,0-3.206,5.41c-3.945,7.267-9.906,18.25-16.437,18.6-2.574.135-4.97-1.382-7.132-4.516-10.169-14.743-10.646-18.376-9.646-20.1.923-1.6,3.231-1.41,5.9-1.192.307.025.619.05.934.073h0c.078.006.159.009.243.009,5.112,0,20.687-10.453,33.241-18.88,10.984-7.373,17.839-11.9,19.974-11.9h.025c.125,0,.755.06,2.671.241,3.021.284,9.207.859,10.178.85,2.741-1.7,5.063-1.913,6.91-.652,2.933-.908,6.377-2.06,9.163-2.992,5.483-1.834,5.93-1.957,6.238-1.9,7.681,1.4,16.523,11,26.282,28.538a230.7,230.7,0,0,1,13.342,28.455c3.884,11.588-8.847,18.2-11.217,19.318.207,2.928,2.934,22.687,4.812,35.926l.093.654-57.066,1.873Zm3.229-80.912a.928.928,0,0,1,.194.021c.77.168.84,1.205.87,1.647,1.121,16.518-2.563,71.327-3.021,78l37.061-1.656,55.754-1.831c-.811-5.726-4.873-34.523-4.736-35.876l.035-.35.325-.136c.607-.254,14.828-6.368,10.923-18.018a234.793,234.793,0,0,0-13.254-28.255c-9.41-16.907-18.185-26.563-25.383-27.935-.517.1-3.164.987-5.727,1.844-2.881.964-6.467,2.163-9.473,3.088l-.294.091-.243-.189c-1.5-1.162-3.435-.965-5.922.6-.273.172-.373.237-10.806-.745-1.316-.124-2.452-.231-2.586-.236h-.014c-1.866,0-10.729,5.948-19.3,11.7-13.583,9.117-28.991,19.452-34.229,19.069-.318-.023-.633-.048-.944-.074-2.179-.177-4.236-.343-4.783.6-1.043,1.8,2.1,7.967,9.6,18.84,1.912,2.772,3.96,4.125,6.094,4.006,5.87-.312,11.873-11.373,15.46-17.98C2229.3,2192.57,2230.241,2190.929,2231.207,2190.929Zm58.815-34.395Z" transform="translate(-2158.059 -2095.109)" fill="#0e2549"/>
      <path id="Path_180" data-name="Path 180" d="M2381.354,2169.953l-2.643,102.609Z" transform="translate(-2271.415 -2104.082)" fill="#e2474b"/>
      <path id="Path_181" data-name="Path 181" d="M2377.824,2272.231h-.015a.557.557,0,0,1-.542-.571l2.643-102.609a.557.557,0,0,1,1.113.028l-2.643,102.61A.557.557,0,0,1,2377.824,2272.231Z" transform="translate(-2270.528 -2103.194)" fill="#0e2549"/>
      <path id="Path_182" data-name="Path 182" d="M2360.915,2176.015l6.43-4.833,7.282,3.333-4.562,6.427,4.6,64.325-8.567,19.724-10.252-18.3,9.25-65.788Z" transform="translate(-2257.36 -2104.837)" fill="#feb633"/>
      <path id="Path_183" data-name="Path 183" d="M2380.931,2242.892s8.39,18.551,6.463,21.851-41.52,6.863-41.52,6.863l2.156,16.447s38.482,3.952,59.615-3.456Z" transform="translate(-2251.233 -2148.91)" fill="#fff"/>
      <path id="Path_184" data-name="Path 184" d="M2370.049,2288.76c-12.7,0-22.864-1.015-23.061-1.036l-.431-.044-2.286-17.444.568-.051c.1-.009,10.007-.905,20.02-2.192,18.566-2.386,20.826-3.972,21.076-4.4,1.3-2.226-3.29-14.276-6.489-21.348a.549.549,0,1,1,1-.452c.871,1.925,8.449,18.908,6.437,22.354-.367.628-1.341,2.3-21.886,4.936-8.66,1.113-17.239,1.935-19.49,2.144l2.024,15.449c4.291.4,39.368,3.394,58.947-3.47a.548.548,0,0,1,.363,1.035C2396.585,2287.835,2382.165,2288.76,2370.049,2288.76Z" transform="translate(-2250.248 -2148.035)" fill="#0e2549"/>
      <path id="Path_185" data-name="Path 185" d="M2385.569,2157.5l12.295,6.387,14.888-11-8.056-3.195Z" transform="translate(-2275.63 -2091.632)" fill="#fff"/>
      <path id="Path_186" data-name="Path 186" d="M2354.035,2166.594l-8.163,7.539-11.612-4.805,4.309-4.84Z" transform="translate(-2244.095 -2100.722)" fill="#fff"/>
      <path id="Path_187" data-name="Path 187" d="M2379.986,2151.74l-9.244-3.666-19.223,7.846-15.582-1.981-5.609,5.924,12.581,4.859,8.75-7.542,12.308,6.394Zm-37.336,11.628-10.238-3.954,4.016-4.241,13.708,1.742Zm10.347-6.8,17.751-7.246,6.868,2.724-13.758,10.165Z" transform="translate(-2241.679 -2090.635)" fill="#0e2549"/>
      <path id="Path_188" data-name="Path 188" d="M2338.174,2222.781l.25,3.506-12.952.932-.25-3.516Z" transform="translate(-2238.539 -2136.55)" fill="#fff"/>
      <path id="Path_189" data-name="Path 189" d="M2323.947,2226.851l-.333-4.674,14.109-1,.332,4.662Zm.906-3.6.168,2.359,11.8-.849-.167-2.349Z" transform="translate(-2237.552 -2135.562)" fill="#0e2549"/>
      <path id="Path_190" data-name="Path 190" d="M2133.536,2193.053l13.449,54.451h78.544l-15.9-54.451Z" transform="translate(-2120.731 -2118.279)" fill="#ebf4fe"/>
      <path id="Path_191" data-name="Path 191" d="M2225.123,2247.16h-79.768l-.108-.439-13.627-55.168h77.264l.121.416ZM2146.26,2246h77.321l-15.564-53.295H2133.1Z" transform="translate(-2119.553 -2117.357)" fill="#0e2549"/>
      <rect id="Rectangle_30" data-name="Rectangle 30" width="102.015" height="5.147" transform="translate(26.325 129.225)" fill="#a1c5e2"/>
      <path id="Path_192" data-name="Path 192" d="M2270.286,2339.139H2167.114v-6.3h103.172Zm-102.016-1.156h100.86v-3.99H2168.27Z" transform="translate(-2141.368 -2204.189)" fill="#0e2549"/>
      <path id="Path_193" data-name="Path 193" d="M2242.855,2264.263c-3.548,0-6.642-3.32-7.014-7.652-.388-4.529,2.345-8.475,6.093-8.8a6.256,6.256,0,0,1,5.056,2.034,9.152,9.152,0,0,1,2.446,5.6h0a9.155,9.155,0,0,1-1.457,5.932,6.255,6.255,0,0,1-4.636,2.865C2243.18,2264.257,2243.017,2264.263,2242.855,2264.263Zm-.43-15.314c-.13,0-.261.006-.393.017-3.113.267-5.374,3.652-5.04,7.546s3.129,6.836,6.251,6.578a5.121,5.121,0,0,0,3.779-2.364,8,8,0,0,0,1.261-5.183h0a8,8,0,0,0-2.125-4.892A5.2,5.2,0,0,0,2242.426,2248.949Z" transform="translate(-2183.585 -2151.922)" fill="#0e2549"/>
      <path id="Path_194" data-name="Path 194" d="M2185.38,2330.681s-1.443-9.552-3.514-10.036-1.406,8.495-1.61,8.538c-.329.069-.157-10.53-2.074-11.139s-1.676,9.826-1.86,9.8c-.272-.034.294-6.713-1.494-8.129s-1.018,7.246-1.372,7.107c-.234-.092.592-5.821-1.224-6.126-1.129-.189-2.446,6.525-2.446,6.525a4.585,4.585,0,0,0,3.931,5.266C2174.942,2332.747,2183.9,2334.921,2185.38,2330.681Z" transform="translate(-2142.983 -2195.082)" fill="#fff"/>
      <path id="Path_195" data-name="Path 195" d="M2178.928,2332.958a28.342,28.342,0,0,1-5.966-.755l-.2-.044a5.141,5.141,0,0,1-4.349-5.885c1.42-7.242,2.656-7.032,3.064-6.962a1.429,1.429,0,0,1,.927.587c.154-.908.411-1.439.837-1.645a.978.978,0,0,1,1.077.186,3.585,3.585,0,0,1,1.06,1.871c.231-1.853.6-3.061,1.208-3.492a1.025,1.025,0,0,1,.915-.143c.949.3,1.468,1.813,1.808,4.475a2.977,2.977,0,0,1,.832-1.658,1.145,1.145,0,0,1,1-.226c2.251.525,3.572,8.153,3.923,10.478l.02.132-.044.125C2184.524,2331.481,2182.99,2332.958,2178.928,2332.958Zm-7.552-12.562c-.481.445-1.337,3.154-1.91,6.075a4.041,4.041,0,0,0,3.514,4.636l.211.046c6.068,1.329,9.887.836,10.789-1.385-.676-4.385-2.035-9.21-3.084-9.455a.086.086,0,0,0-.09.021c-.823.655-.816,5.191-.813,6.681,0,1.541,0,1.738-.474,1.838l-.241.051-.21-.153c-.276-.212-.3-.419-.424-2.6-.313-5.356-.8-8.2-1.458-8.445-.384.243-.875,1.823-1.082,7.852-.055,1.621-.057,1.652-.278,1.841l-.18.154-.24-.028c-.538-.067-.544-.414-.572-1.871-.031-1.641-.1-5.473-1.173-6.357-.389.676-.4,3.681-.4,4.851-.005,1.771-.006,2.043-.329,2.263l-.234.16-.284-.1c-.414-.162-.406-.46-.373-1.569C2172.121,2322.132,2171.9,2320.618,2171.377,2320.4Z" transform="translate(-2142.136 -2194.226)" fill="#0e2549"/>
      <path id="Path_196" data-name="Path 196" d="M2361.65,2091.611a1.562,1.562,0,0,0,1.74,2.089c4.323-.674,8-4.17,6.977-3.829-.4.133-3.114,1.061-4.936,1.457C2362.956,2091.867,2362.057,2091.06,2361.65,2091.611Z" transform="translate(-2260.856 -2054.848)" fill="#fff"/>
    </g>
    <g id="Group_54" data-name="Group 54" transform="translate(1513.888 2114.202)">
      <path id="Path_197" data-name="Path 197" d="M2524.121,2710.625l15.8-25.822,27.749,12.911-3.121,21Z" transform="translate(-2485.267 -2684.061)" fill="#f5e3c3"/>
      <path id="Path_198" data-name="Path 198" d="M2563.558,2718.222l-41.837-8.375,16.5-26.968,28.608,13.311Zm-39.987-9.184,39.022,7.812,2.969-19.977-26.89-12.511Z" transform="translate(-2483.792 -2682.878)" fill="#0e2549"/>
      <path id="Path_199" data-name="Path 199" d="M2435.7,2727.118l5.361-16.162,37.636,11.7-7.425,14.624Z" transform="translate(-2430.925 -2700.135)" fill="#f5e3c3"/>
      <path id="Path_200" data-name="Path 200" d="M2470.4,2736.817l-36.61-10.458,5.729-17.272,38.832,12.071Zm-35.133-11.239,34.535,9.865,6.9-13.588-36.441-11.328Z" transform="translate(-2429.748 -2698.986)" fill="#0e2549"/>
      <path id="Path_201" data-name="Path 201" d="M2423.307,2745.926h85.835l-10.28,91.747-65.79.2Z" transform="translate(-2423.307 -2721.627)" fill="#6d5a37"/>
    </g>
    <path id="Path_202" data-name="Path 202" d="M1624.384,2983.706h-680.2a.578.578,0,1,1,0-1.156h680.2a.578.578,0,1,1,0,1.156Z" transform="translate(0 -752.853)" fill="#0e2549"/>
  </g>
</svg>
