<svg xmlns="http://www.w3.org/2000/svg" width="103.848" height="115.386" viewBox="0 0 103.848 115.386"><defs><style>.a{fill:#fff;}.b{fill:#feb633;}.c{fill:#f9a814;}.d{fill:#fdad1d;}</style></defs><g transform="translate(-6 -4)"><path class="a" d="M109.848,42.366c0,59.135-51.924,77.02-51.924,77.02S6,101.5,6,42.366A151.9,151.9,0,0,1,7.154,24.193,16.94,16.94,0,0,1,19.846,9.481,142.637,142.637,0,0,1,57.924,4,146.929,146.929,0,0,1,96.29,9.481a17.269,17.269,0,0,1,12.692,14.712C109.271,29.1,109.848,35.443,109.848,42.366Z" transform="translate(0)"/><path class="b" d="M57.924,12.654c14.135,0,27.4,2.885,36.058,5.192,3.462.865,5.769,3.75,6.346,7.5a163.931,163.931,0,0,1,.865,17.019c0,45-33.174,63.174-43.27,67.5-10.1-4.615-43.27-22.789-43.27-67.5a163.932,163.932,0,0,1,.865-17.019,8.31,8.31,0,0,1,6.346-7.5c8.654-2.308,21.923-5.192,36.058-5.192m0-8.654A146.929,146.929,0,0,0,19.558,9.481a16.967,16.967,0,0,0-12.4,14.712A156.161,156.161,0,0,0,6,42.366c0,59.135,51.924,77.02,51.924,77.02s51.924-17.885,51.924-77.02a151.9,151.9,0,0,0-1.154-18.173A16.94,16.94,0,0,0,96,9.481,142.637,142.637,0,0,0,57.924,4Z" transform="translate(0)"/><path class="c" d="M23,28h5.769V51.077H23Z" transform="translate(32.039 45.232)"/><path class="b" d="M35.308,10S18,24.423,18,47.5c0,15,9.519,24.52,14.423,28.847l2.885-8.654,2.885,8.654C43.1,72.02,52.616,62.5,52.616,47.5,52.616,24.423,35.308,10,35.308,10Z" transform="translate(22.616 11.308)"/><path class="d" d="M35.308,10S18,24.423,18,47.5c0,15,9.519,24.52,14.423,28.847l2.885-8.654Z" transform="translate(22.616 11.308)"/></g></svg>