<svg xmlns="http://www.w3.org/2000/svg" width="115.886" height="115.886" viewBox="0 0 115.886 115.886"><defs><style>.a{fill:#feb633;}.b{fill:#fff;}</style></defs><path class="a" d="M0,0H115.886V115.886H0Z"/><path class="b" d="M352.443,512.913c-.848-5.288-4.3-9.727-14.508-13.869-3.547-1.63-7.5-2.8-8.68-5.486a5.984,5.984,0,0,1-.209-3.393c.76-3.073,4.428-4.032,7.337-3.151a8.072,8.072,0,0,1,4.715,4.373c5-3.239,4.99-3.217,8.482-5.442a21.612,21.612,0,0,0-2.8-3.745c-3.007-3.36-7.105-5.089-13.66-4.957-1.135.143-2.28.3-3.415.441a15.491,15.491,0,0,0-8.218,4.847c-5.486,6.224-3.922,17.118,2.754,21.6,6.576,4.935,16.237,6.059,17.471,10.674,1.2,5.651-4.153,7.48-9.474,6.83-3.922-.815-6.1-2.809-8.46-6.433-4.34,2.512-4.34,2.512-8.8,5.078,1.058,2.313,2.17,3.36,3.944,5.365,8.394,8.515,29.4,8.1,33.169-4.792A15.913,15.913,0,0,0,352.443,512.913Zm-43.4-34.986H298.2c0,9.363-.044,18.661-.044,28.024,0,5.96.308,11.423-.661,13.1-1.586,3.294-5.7,2.886-7.568,2.247a9.3,9.3,0,0,1-4-4.153,5.569,5.569,0,0,0-.617-.991q-4.412,2.693-8.813,5.4a17.418,17.418,0,0,0,6.389,7.314c4.131,2.479,9.683,3.239,15.488,1.906a13.686,13.686,0,0,0,8.746-6.852c2.468-4.55,1.939-10.057,1.917-16.149.055-9.936,0-19.872,0-29.842Z" transform="translate(-246.041 -424.666)"/></svg>