<svg xmlns="http://www.w3.org/2000/svg" xmlns:xlink="http://www.w3.org/1999/xlink" width="115.989" height="115.386" viewBox="0 0 115.989 115.386"><defs><style>.a{fill:#feb633;}.b{fill:url(#a);}</style><linearGradient id="a" x1="0.191" y1="0.206" x2="0.907" y2="0.884" gradientUnits="objectBoundingBox"><stop offset="0" stop-color="#feb633"/><stop offset="1" stop-color="#ffc331"/></linearGradient></defs><g transform="translate(-0.145 -0.072)"><path class="a" d="M57.722.072c-29.445,0-27.607,12.769-27.607,12.769l.033,13.229h28.1v3.972H18.987S.145,27.906.145,57.616,16.591,86.273,16.591,86.273h9.815V72.486S25.877,56.04,42.589,56.04H70.458s15.658.253,15.658-15.133V15.468S88.494.072,57.722.072Zm-15.494,8.9a5.05,5.05,0,1,1-3.576,1.479A5.05,5.05,0,0,1,42.228,8.968Z"/><path class="b" d="M94.582,150.527c29.445,0,27.607-12.769,27.607-12.769l-.033-13.229h-28.1v-3.972h39.26s18.842,2.137,18.842-27.574-16.446-28.657-16.446-28.657H125.9V78.112s.529,16.446-16.183,16.446H81.845S66.187,94.3,66.187,109.691v25.44s-2.378,15.4,28.394,15.4Zm15.494-8.9a5.051,5.051,0,1,1,3.576-1.48,5.051,5.051,0,0,1-3.576,1.48Z" transform="translate(-36.024 -35.068)"/></g></svg>