<svg xmlns="http://www.w3.org/2000/svg" width="110.986" height="115.386" viewBox="0 0 110.986 115.386"><defs><style>.a{fill:#feb633;}</style></defs><g transform="translate(-11.222)"><path class="a" d="M79.406,105.425c.151.008.3.023.459.023H114.8a7.419,7.419,0,0,0,7.41-7.41V17.055a7.42,7.42,0,0,0-7.41-7.41H79.865c-.154,0-.308.014-.459.022V0L11.222,9.1v96.951l68.184,9.335Zm0-91.5a3.138,3.138,0,0,1,.459-.045H114.8a3.179,3.179,0,0,1,3.176,3.176V98.037a3.179,3.179,0,0,1-3.176,3.176H79.865a3.1,3.1,0,0,1-.459-.047V13.925ZM22.229,64.618a12.462,12.462,0,0,1-5.669-1.461l.908-4.009A11.012,11.012,0,0,0,22.5,60.58c2.119.037,3.25-.889,3.25-2.325,0-1.369-.978-2.159-3.43-3.113-3.345-1.265-5.5-3.248-5.5-6.378,0-3.673,2.835-6.558,7.613-6.684a11.864,11.864,0,0,1,5.295.981l-1.056,4.065a9.242,9.242,0,0,0-4.33-.978c-2,.033-2.957,1.018-2.957,2.148,0,1.388,1.141,1.994,3.78,3.05,3.66,1.429,5.4,3.471,5.4,6.605C30.574,61.675,27.869,64.768,22.229,64.618Zm30.691,4.5a80.711,80.711,0,0,1-9.02-3.545,5.065,5.065,0,0,0-1.557-.381c-4.963-.468-9.5-4.3-9.5-11.594,0-6.7,4.085-11.846,10.658-12.02,6.943-.183,10.842,5.144,10.842,11.546,0,5.325-2.458,9.036-5.5,10.351v.138c1.774.557,3.772,1.022,5.609,1.449Zm20.321-3.5-15.382-.4V41.583l5.473-.141V60.817l9.909.161Z"/><path class="a" d="M153.165,233.057c-3.423.059-5.374,3.513-5.374,7.741-.035,4.295,1.983,7.617,5.338,7.678,3.443.06,5.473-3.241,5.473-7.778C158.6,236.471,156.64,233,153.165,233.057Z" transform="translate(-109.796 -187.369)"/><path class="a" d="M387.735,250.572c8.216,0,14.647-2.936,14.647-6.683v-4.217a3.555,3.555,0,0,0-.523-1.8l-.014-.024a3.518,3.518,0,0,0,.538-1.807v-4.217a3.566,3.566,0,0,0-.523-1.807l-.045-.076a3.548,3.548,0,0,0,.568-1.864v-4.216a3.579,3.579,0,0,0-.473-1.727l-.036-.067a2.321,2.321,0,0,0,.158-.8c0-3.408-7.365-5.247-14.3-5.247s-14.287,1.84-14.287,5.247a2.305,2.305,0,0,0,.159.8l-.037.067a3.566,3.566,0,0,0-.473,1.726v4.216a3.538,3.538,0,0,0,.567,1.862l-.048.081a3.6,3.6,0,0,0-.519,1.805v4.216a3.5,3.5,0,0,0,.535,1.8l-.017.027a3.6,3.6,0,0,0-.519,1.8v4.218C373.1,247.636,379.527,250.572,387.735,250.572Zm-13.071-26.01c2.349,1.991,7.8,3.022,13.071,3.022s10.726-1.032,13.078-3.023v3.51c0,2.419-5.367,5.115-13.078,5.115s-13.071-2.7-13.071-5.115Zm0,7.507c2.4,2.2,7.35,3.607,13.071,3.607s10.675-1.406,13.078-3.609v3.969c0,2.419-5.367,5.115-13.078,5.115s-13.071-2.7-13.071-5.115Zm0,7.853c2.4,2.2,7.35,3.608,13.071,3.608s10.675-1.406,13.078-3.609v3.969c0,2.419-5.367,5.114-13.078,5.114s-13.071-2.7-13.071-5.114Z" transform="translate(-290.935 -173.671)"/></g></svg>